%TF.GenerationSoftware,Altium Limited,Altium Designer,24.10.1 (45)*%
G04 Layer_Physical_Order=2*
G04 Layer_Color=32768*
%FSLAX45Y45*%
%MOMM*%
%TF.SameCoordinates,079BFE04-B767-4AA5-AD7D-3EA92BFB1467*%
%TF.FilePolarity,Negative*%
%TF.FileFunction,Copper,L2,Inr,Plane*%
%TF.Part,Single*%
G01*
G75*
%TA.AperFunction,NonConductor*%
%ADD48C,1.01600*%
%TA.AperFunction,ComponentPad*%
%ADD49C,1.71600*%
%ADD50C,1.93600*%
%ADD51C,2.41600*%
%TA.AperFunction,ViaPad*%
%ADD52C,1.31600*%
%ADD53C,1.51600*%
D48*
X0Y0D02*
X17000000D01*
Y4600000D01*
X0D02*
X17000000D01*
X0Y0D02*
Y4600000D01*
D49*
X8492500Y445000D02*
D03*
X8907500D02*
D03*
X9612500D02*
D03*
X10027500D02*
D03*
D50*
X7400000Y1199000D02*
D03*
X7200000D02*
D03*
X6950000D02*
D03*
D51*
X11450000Y380000D02*
D03*
X15850000D02*
D03*
X13650000D02*
D03*
D52*
X420000Y3130000D02*
D03*
X340000D02*
D03*
X5130000Y2620000D02*
D03*
X2970000Y1380000D02*
D03*
X2972851Y1297150D02*
D03*
X2970000Y1540000D02*
D03*
X2970000Y1460000D02*
D03*
X5330000Y2950000D02*
D03*
X5132851Y2537150D02*
D03*
X5130000Y2780000D02*
D03*
X5130000Y2700000D02*
D03*
X5330000Y2870000D02*
D03*
X5332851Y2787150D02*
D03*
X5330001Y3030000D02*
D03*
X4870000Y1330000D02*
D03*
X4950000Y1329999D02*
D03*
X4707150Y1327149D02*
D03*
X4790000Y1330000D02*
D03*
X4470000Y1710000D02*
D03*
X600000Y1550000D02*
D03*
X680000D02*
D03*
X4850000Y3250000D02*
D03*
X4870000Y4080000D02*
D03*
Y4210000D02*
D03*
X3339999Y2930000D02*
D03*
X3340000Y3010000D02*
D03*
X3820000Y2580000D02*
D03*
X2660000Y1510000D02*
D03*
X4330000Y1710000D02*
D03*
X3940000Y3260000D02*
D03*
X3870000Y3160000D02*
D03*
X12630000Y1460000D02*
D03*
X12430000Y1830000D02*
D03*
X13450000Y1909999D02*
D03*
X13370000D02*
D03*
X14939999Y2000000D02*
D03*
Y1920000D02*
D03*
X13039999Y3230000D02*
D03*
Y3150000D02*
D03*
X14250000Y3750000D02*
D03*
X10890000Y3230000D02*
D03*
Y3150000D02*
D03*
X13270000Y3080000D02*
D03*
X13270000Y2920000D02*
D03*
Y3000000D02*
D03*
X15350000Y1640000D02*
D03*
X11150000Y1750000D02*
D03*
X13239999Y1740000D02*
D03*
X10810000Y1850000D02*
D03*
X9747500Y923236D02*
D03*
X9827501D02*
D03*
X8707500Y2309999D02*
D03*
X8627500D02*
D03*
X12580000Y2590000D02*
D03*
Y2510000D02*
D03*
X13320000Y2150000D02*
D03*
Y2230000D02*
D03*
X12720000Y2800000D02*
D03*
X13210001Y2325000D02*
D03*
X14455000Y3000000D02*
D03*
X13360001Y2790000D02*
D03*
X7260000Y1650000D02*
D03*
X7340000D02*
D03*
X970000Y2090000D02*
D03*
X2410000Y2470000D02*
D03*
X2330000D02*
D03*
X1930000Y2090000D02*
D03*
X1850000D02*
D03*
X1370000Y2470000D02*
D03*
X1450000D02*
D03*
X1900001Y3400000D02*
D03*
X2280000Y3640000D02*
D03*
Y3560000D02*
D03*
X1900001Y3320000D02*
D03*
X2660000Y3880000D02*
D03*
Y3800000D02*
D03*
X3040000Y4040000D02*
D03*
Y4120000D02*
D03*
X890000Y2090000D02*
D03*
D53*
X6915000Y2900000D02*
D03*
%TF.MD5,0ed761b4e78d111f35271ca86157e01d*%
M02*
