%TF.GenerationSoftware,Altium Limited,Altium Designer,24.10.1 (45)*%
G04 Layer_Physical_Order=1*
G04 Layer_Color=255*
%FSLAX45Y45*%
%MOMM*%
%TF.SameCoordinates,079BFE04-B767-4AA5-AD7D-3EA92BFB1467*%
%TF.FilePolarity,Positive*%
%TF.FileFunction,Copper,L1,Top,Signal*%
%TF.Part,Single*%
G01*
G75*
%TA.AperFunction,Conductor*%
%ADD10C,0.12170*%
%TA.AperFunction,SMDPad,CuDef*%
%ADD11R,1.60000X0.90000*%
%ADD12R,0.50000X0.60000*%
%ADD13R,0.80000X0.80000*%
%ADD14R,0.50000X0.50000*%
%ADD15R,1.60000X2.60000*%
%ADD16R,1.50000X2.80000*%
%ADD17R,6.30000X6.10000*%
%ADD18R,1.22000X0.91000*%
%ADD19R,0.30000X0.90000*%
%ADD20R,0.90000X0.30000*%
%ADD21R,5.30000X4.60000*%
%ADD22R,0.30000X0.85000*%
%ADD23R,0.85000X0.30000*%
%ADD24R,7.65000X2.15000*%
%ADD25R,1.90000X1.90000*%
%ADD26R,1.80000X1.90000*%
%ADD27R,0.40000X1.35000*%
%ADD28R,1.50000X1.20000*%
%ADD29R,0.30000X2.60000*%
%ADD30R,0.28000X2.40000*%
%ADD31R,0.50000X0.50000*%
%ADD32R,0.60000X0.50000*%
%TA.AperFunction,Conductor*%
%ADD33C,0.25400*%
%ADD34C,0.80000*%
%ADD35C,0.90000*%
%ADD36C,0.15540*%
%ADD37C,0.30000*%
%TA.AperFunction,ComponentPad*%
%ADD38C,0.70000*%
%ADD39C,1.42000*%
G04:AMPARAMS|DCode=40|XSize=1.42mm|YSize=1.42mm|CornerRadius=0.355mm|HoleSize=0mm|Usage=FLASHONLY|Rotation=0.000|XOffset=0mm|YOffset=0mm|HoleType=Round|Shape=RoundedRectangle|*
%AMROUNDEDRECTD40*
21,1,1.42000,0.71000,0,0,0.0*
21,1,0.71000,1.42000,0,0,0.0*
1,1,0.71000,0.35500,-0.35500*
1,1,0.71000,-0.35500,-0.35500*
1,1,0.71000,-0.35500,0.35500*
1,1,0.71000,0.35500,0.35500*
%
%ADD40ROUNDEDRECTD40*%
%ADD41C,3.45000*%
%ADD42C,2.88000*%
%ADD43C,4.27500*%
%ADD44C,2.56500*%
%ADD45C,1.87500*%
%TA.AperFunction,ViaPad*%
%ADD46C,0.45000*%
%ADD47C,1.00000*%
D10*
X3341295Y4115030D02*
G03*
X3392569Y4063755I51274J0D01*
G01*
X3341295Y4119003D02*
G03*
X3322510Y4137788I-18785J0D01*
G01*
X3322509D02*
G03*
X3303725Y4119003I0J-18785D01*
G01*
X3252450Y3987555D02*
G03*
X3303725Y4038830I0J51274D01*
G01*
X3201175D02*
G03*
X3252450Y3987555I51274J0D01*
G01*
X3201175Y4121171D02*
G03*
X3182391Y4139955I-18785J0D01*
G01*
X3182390D02*
G03*
X3163606Y4121171I0J-18785D01*
G01*
X3112331Y4063755D02*
G03*
X3163606Y4115030I0J51274D01*
G01*
X3373784D02*
G03*
X3392569Y4096245I18785J0D01*
G01*
X3373784Y4119003D02*
G03*
X3322510Y4170278I-51274J0D01*
G01*
X3322509D02*
G03*
X3271235Y4119003I0J-51274D01*
G01*
X3252450Y4020045D02*
G03*
X3271235Y4038830I0J18785D01*
G01*
X3233665D02*
G03*
X3252450Y4020045I18785J0D01*
G01*
X3233665Y4121171D02*
G03*
X3182391Y4172445I-51274J0D01*
G01*
X3182390D02*
G03*
X3131116Y4121171I0J-51274D01*
G01*
X3112331Y4096245D02*
G03*
X3131116Y4115030I0J18785D01*
G01*
X3176445Y3823755D02*
G03*
X3157660Y3804970I0J-18785D01*
G01*
X3138876Y3760043D02*
G03*
X3157660Y3778828I0J18785D01*
G01*
X3120091D02*
G03*
X3138875Y3760043I18785J0D01*
G01*
X3120091Y3804970D02*
G03*
X3101306Y3823755I-18785J0D01*
G01*
X3101305D02*
G03*
X3082521Y3804970I0J-18785D01*
G01*
X3063736Y3747555D02*
G03*
X3082521Y3766340I0J18785D01*
G01*
X3044951D02*
G03*
X3063736Y3747555I18785J0D01*
G01*
X3044951Y3804970D02*
G03*
X3026166Y3823755I-18785J0D01*
G01*
X2750000Y3856245D02*
G03*
X2768785Y3875030I0J18785D01*
G01*
X2820059Y3926307D02*
G03*
X2768785Y3875032I0J-51274D01*
G01*
X2871334D02*
G03*
X2820060Y3926307I-51274J0D01*
G01*
X2871334Y3802435D02*
G03*
X2890119Y3783650I18785J0D01*
G01*
X2890119D02*
G03*
X2908904Y3802435I0J18785D01*
G01*
X2960178Y3856245D02*
G03*
X2908904Y3804971I0J-51274D01*
G01*
X2750000Y3823755D02*
G03*
X2801275Y3875030I0J51274D01*
G01*
X2820059Y3893817D02*
G03*
X2801275Y3875032I0J-18785D01*
G01*
X2838844D02*
G03*
X2820060Y3893817I-18785J0D01*
G01*
X2838844Y3802435D02*
G03*
X2890119Y3751160I51274J0D01*
G01*
X2890119D02*
G03*
X2941394Y3802435I0J51274D01*
G01*
X2960178Y3823755D02*
G03*
X2941394Y3804971I0J-18785D01*
G01*
X2743935Y3583755D02*
G03*
X2725151Y3564970I0J-18785D01*
G01*
X2706366Y3530043D02*
G03*
X2725151Y3548828I0J18785D01*
G01*
X2687581D02*
G03*
X2706365Y3530043I18785J0D01*
G01*
X2687581Y3564970D02*
G03*
X2668796Y3583755I-18785J0D01*
G01*
X2668796D02*
G03*
X2650011Y3564970I0J-18785D01*
G01*
X2631226Y3497555D02*
G03*
X2650011Y3516340I0J18785D01*
G01*
X2612441D02*
G03*
X2631226Y3497555I18785J0D01*
G01*
X2612441Y3564970D02*
G03*
X2593656Y3583755I-18785J0D01*
G01*
X2438824Y3564971D02*
G03*
X2387550Y3616245I-51274J0D01*
G01*
X2438824Y3551877D02*
G03*
X2457609Y3533092I18785J0D01*
G01*
X2457610D02*
G03*
X2476394Y3551877I0J18785D01*
G01*
X2527669Y3616245D02*
G03*
X2476394Y3564971I0J-51274D01*
G01*
X2406335D02*
G03*
X2387550Y3583755I-18785J0D01*
G01*
X2406335Y3551877D02*
G03*
X2457609Y3500602I51274J0D01*
G01*
X2457610D02*
G03*
X2508884Y3551877I0J51274D01*
G01*
X2527669Y3583755D02*
G03*
X2508884Y3564971I0J-18785D01*
G01*
X11680435Y2295513D02*
G03*
X11693718Y2290011I13283J13283D01*
G01*
X11773697Y2271226D02*
G03*
X11754912Y2290011I-18785J0D01*
G01*
Y2252441D02*
G03*
X11773697Y2271226I0J18785D01*
G01*
X11735030Y2252441D02*
G03*
X11716245Y2233656I0J-18785D01*
G01*
X11642490Y2752629D02*
G03*
X11661275Y2733844I18785J0D01*
G01*
X11712552Y2682569D02*
G03*
X11661277Y2733844I-51274J0D01*
G01*
Y2631295D02*
G03*
X11712552Y2682569I0J51274D01*
G01*
X11585493Y2631295D02*
G03*
X11566708Y2612510I0J-18785D01*
G01*
Y2612510D02*
G03*
X11585493Y2593725I18785J0D01*
G01*
X11718690Y2542450D02*
G03*
X11667415Y2593725I-51274J0D01*
G01*
Y2491176D02*
G03*
X11718690Y2542450I0J51274D01*
G01*
X11585074Y2491176D02*
G03*
X11566290Y2472391I0J-18785D01*
G01*
Y2472391D02*
G03*
X11585074Y2453606I18785J0D01*
G01*
X11642490Y2402331D02*
G03*
X11591215Y2453606I-51274J0D01*
G01*
X11610000Y2752629D02*
G03*
X11661275Y2701354I51274J0D01*
G01*
X11680062Y2682569D02*
G03*
X11661277Y2701354I-18785J0D01*
G01*
Y2663784D02*
G03*
X11680062Y2682569I0J18785D01*
G01*
X11585493Y2663784D02*
G03*
X11534218Y2612510I0J-51274D01*
G01*
Y2612510D02*
G03*
X11585493Y2561235I51274J0D01*
G01*
X11686200Y2542450D02*
G03*
X11667415Y2561235I-18785J0D01*
G01*
Y2523665D02*
G03*
X11686200Y2542450I0J18785D01*
G01*
X11585074Y2523665D02*
G03*
X11533800Y2472391I0J-51274D01*
G01*
Y2472391D02*
G03*
X11585074Y2421116I51274J0D01*
G01*
X11610000Y2402331D02*
G03*
X11591215Y2421116I-18785J0D01*
G01*
X12434001Y3484001D02*
G03*
X12434001Y3457435I13283J-13283D01*
G01*
X12456655Y3408216D02*
G03*
X12456655Y3434782I-13283J13283D01*
G01*
X12430088Y3408215D02*
G03*
X12456655Y3408216I13283J13283D01*
G01*
X12407435Y3430869D02*
G03*
X12380869Y3430869I-13283J-13283D01*
G01*
X12644001Y3234001D02*
G03*
X12644001Y3207435I13283J-13283D01*
G01*
X12666655Y3158215D02*
G03*
X12666655Y3184781I-13283J13283D01*
G01*
X12640089Y3158215D02*
G03*
X12666655Y3158215I13283J13283D01*
G01*
X12617435Y3180869D02*
G03*
X12590869Y3180869I-13283J-13283D01*
G01*
X12000404Y3050402D02*
G03*
X11991245Y3028202I22326J-22200D01*
G01*
X11927271Y2866345D02*
G03*
X11991245Y2930320I0J63974D01*
G01*
X11863296D02*
G03*
X11927270Y2866345I63974J0D01*
G01*
X11881956Y3112901D02*
G03*
X11863296Y3067742I45314J-45159D01*
G01*
X12184644Y3415590D02*
G03*
X12184579Y3415525I11487J-11487D01*
G01*
X12184644Y3415590D02*
G03*
X12140118Y3460116I-22263J22263D01*
G01*
X11809496Y3129495D02*
G03*
X11800326Y3107283I22314J-22212D01*
G01*
Y2834860D02*
G03*
X11831811Y2803375I31485J0D01*
G01*
X11991245Y2739401D02*
G03*
X11927271Y2803375I-63974J0D01*
G01*
X11977415Y3073361D02*
G03*
X11958755Y3028202I45314J-45159D01*
G01*
X11927271Y2898835D02*
G03*
X11958755Y2930320I0J31485D01*
G01*
X11895785D02*
G03*
X11927270Y2898835I31485J0D01*
G01*
X11904956Y3089954D02*
G03*
X11895785Y3067742I22314J-22212D01*
G01*
X12212376Y3397938D02*
G03*
X12117144Y3483090I-49995J39915D01*
G01*
X11786496Y3152442D02*
G03*
X11767836Y3107283I45314J-45159D01*
G01*
Y2834860D02*
G03*
X11831811Y2770885I63974J0D01*
G01*
X11958755Y2739401D02*
G03*
X11927271Y2770885I-31485J0D01*
G01*
X12529210Y3119210D02*
G03*
X12529246Y3119246I-11487J11487D01*
G01*
X12438749Y3119198D02*
G03*
X12529210Y3119210I45225J45249D01*
G01*
X12366479Y3191468D02*
G03*
X12322003Y3191519I-22263J-22263D01*
G01*
X12134496Y3004012D02*
G03*
X12125326Y2981800I22314J-22212D01*
G01*
Y2322030D02*
G03*
X12156811Y2290545I31485J0D01*
G01*
X12156811D02*
G03*
X12188296Y2322030I0J31485D01*
G01*
X12206956Y2987418D02*
G03*
X12188296Y2942259I45314J-45159D01*
G01*
X12389451Y3079440D02*
G03*
X12298978Y3079440I-45237J-45237D01*
G01*
X12389451Y2988966D02*
G03*
X12389452Y3079440I-45236J45237D01*
G01*
X12389386Y2988901D02*
G03*
X12389451Y2988966I-11422J11552D01*
G01*
X12325415Y2924930D02*
G03*
X12316245Y2902719I22314J-22212D01*
G01*
X12461718Y3142175D02*
G03*
X12506273Y3142220I22255J22271D01*
G01*
X12389453Y3214441D02*
G03*
X12299083Y3214545I-45237J-45237D01*
G01*
X12111496Y3026959D02*
G03*
X12092836Y2981800I45314J-45159D01*
G01*
Y2322030D02*
G03*
X12156811Y2258056I63974J0D01*
G01*
X12156811D02*
G03*
X12220785Y2322030I0J63974D01*
G01*
X12229956Y2964471D02*
G03*
X12220785Y2942259I22314J-22212D01*
G01*
X12366478Y3056466D02*
G03*
X12321951Y3056466I-22263J-22263D01*
G01*
X12366562Y3012024D02*
G03*
X12366478Y3056466I-22347J22179D01*
G01*
X12302415Y2947878D02*
G03*
X12283755Y2902719I45314J-45159D01*
G01*
X11391253Y2648796D02*
G03*
X11410038Y2630011I18785J0D01*
G01*
X11461246Y2611226D02*
G03*
X11442461Y2630011I-18785J0D01*
G01*
Y2592441D02*
G03*
X11461246Y2611226I0J18785D01*
G01*
X11410038Y2592441D02*
G03*
X11391253Y2573656I0J-18785D01*
G01*
X14524387Y2329666D02*
G03*
X14497820Y2329666I-13283J-13283D01*
G01*
X14465721Y2324132D02*
G03*
X14492287Y2324132I13283J13283D01*
G01*
X14465721Y2350698D02*
G03*
X14465721Y2324132I13283J-13283D01*
G01*
X14471255Y2356232D02*
G03*
X14471255Y2382798I-13283J13283D01*
G01*
X14498796Y2549320D02*
G03*
X14480011Y2530535I0J-18785D01*
G01*
X14461226Y2503924D02*
G03*
X14480011Y2522709I0J18785D01*
G01*
X14442441D02*
G03*
X14461226Y2503924I18785J0D01*
G01*
X14442441Y2530535D02*
G03*
X14423656Y2549320I-18785J0D01*
G01*
X14518796Y2708755D02*
G03*
X14500011Y2689970I0J-18785D01*
G01*
X14481226Y2665715D02*
G03*
X14500011Y2684499I0J18785D01*
G01*
X14462440D02*
G03*
X14481226Y2665715I18785J0D01*
G01*
X14462440Y2689970D02*
G03*
X14443655Y2708755I-18785J0D01*
G01*
X15331651Y2301275D02*
G03*
X15382925Y2250000I51274J0D01*
G01*
X15331651Y2301277D02*
G03*
X15312868Y2320062I-18785J0D01*
G01*
X15312868D02*
G03*
X15294083Y2301277I0J-18785D01*
G01*
X15242807Y2185079D02*
G03*
X15294083Y2236353I0J51274D01*
G01*
X15191533D02*
G03*
X15242807Y2185079I51274J0D01*
G01*
X15191533Y2307416D02*
G03*
X15172748Y2326200I-18785J0D01*
G01*
X15172748D02*
G03*
X15153963Y2307416I0J-18785D01*
G01*
X15102689Y2173800D02*
G03*
X15153963Y2225075I0J51274D01*
G01*
X15051414D02*
G03*
X15102689Y2173800I51274J0D01*
G01*
X15051414Y2307416D02*
G03*
X15032629Y2326200I-18785J0D01*
G01*
X15032629D02*
G03*
X15013844Y2307416I0J-18785D01*
G01*
X14962569Y2173800D02*
G03*
X15013844Y2225075I0J51274D01*
G01*
X14911295D02*
G03*
X14962569Y2173800I51274J0D01*
G01*
X14911295Y2307416D02*
G03*
X14892509Y2326200I-18785J0D01*
G01*
X14892509D02*
G03*
X14873724Y2307416I0J-18785D01*
G01*
X14822450Y2173800D02*
G03*
X14873724Y2225075I0J51274D01*
G01*
X14771175D02*
G03*
X14822450Y2173800I51274J0D01*
G01*
X14771175Y2307416D02*
G03*
X14752391Y2326200I-18785J0D01*
G01*
X14752390D02*
G03*
X14733606Y2307416I0J-18785D01*
G01*
X14682330Y2250000D02*
G03*
X14733606Y2301275I0J51274D01*
G01*
X15364140D02*
G03*
X15382925Y2282490I18785J0D01*
G01*
X15364140Y2301277D02*
G03*
X15312868Y2352552I-51274J0D01*
G01*
X15312868D02*
G03*
X15261592Y2301277I0J-51274D01*
G01*
X15242807Y2217569D02*
G03*
X15261592Y2236353I0J18785D01*
G01*
X15224022D02*
G03*
X15242807Y2217569I18785J0D01*
G01*
X15224022Y2307416D02*
G03*
X15172748Y2358690I-51274J0D01*
G01*
X15172748D02*
G03*
X15121474Y2307416I0J-51274D01*
G01*
X15102689Y2206290D02*
G03*
X15121474Y2225075I0J18785D01*
G01*
X15083904D02*
G03*
X15102689Y2206290I18785J0D01*
G01*
X15083904Y2307416D02*
G03*
X15032629Y2358690I-51274J0D01*
G01*
X15032629D02*
G03*
X14981354Y2307416I0J-51274D01*
G01*
X14962569Y2206290D02*
G03*
X14981354Y2225075I0J18785D01*
G01*
X14943784D02*
G03*
X14962569Y2206290I18785J0D01*
G01*
X14943784Y2307416D02*
G03*
X14892509Y2358690I-51274J0D01*
G01*
X14892509D02*
G03*
X14841235Y2307416I0J-51274D01*
G01*
X14822450Y2206290D02*
G03*
X14841235Y2225075I0J18785D01*
G01*
X14803665D02*
G03*
X14822450Y2206290I18785J0D01*
G01*
X14803665Y2307416D02*
G03*
X14752391Y2358690I-51274J0D01*
G01*
X14752390D02*
G03*
X14701115Y2307416I0J-51274D01*
G01*
X14682330Y2282490D02*
G03*
X14701115Y2301275I0J18785D01*
G01*
X15172748Y2500000D02*
G03*
X15153963Y2481215I0J-18785D01*
G01*
X15102689Y2429938D02*
G03*
X15153963Y2481213I0J51274D01*
G01*
X15051414D02*
G03*
X15102689Y2429938I51274J0D01*
G01*
X15051414Y2550343D02*
G03*
X15032629Y2569128I-18785J0D01*
G01*
X15032629D02*
G03*
X15013844Y2550343I0J-18785D01*
G01*
X14962569Y2423800D02*
G03*
X15013844Y2475075I0J51274D01*
G01*
X14911295D02*
G03*
X14962569Y2423800I51274J0D01*
G01*
X14911295Y2557416D02*
G03*
X14892509Y2576200I-18785J0D01*
G01*
X14892509D02*
G03*
X14873724Y2557416I0J-18785D01*
G01*
X14822450Y2423800D02*
G03*
X14873724Y2475075I0J51274D01*
G01*
X14771175D02*
G03*
X14822450Y2423800I51274J0D01*
G01*
X14771175Y2557416D02*
G03*
X14752391Y2576200I-18785J0D01*
G01*
X14752390D02*
G03*
X14733606Y2557416I0J-18785D01*
G01*
X14682330Y2500000D02*
G03*
X14733606Y2551275I0J51274D01*
G01*
X15172748Y2532490D02*
G03*
X15121474Y2481215I0J-51274D01*
G01*
X15102689Y2462428D02*
G03*
X15121474Y2481213I0J18785D01*
G01*
X15083904D02*
G03*
X15102689Y2462428I18785J0D01*
G01*
X15083904Y2550343D02*
G03*
X15032629Y2601617I-51274J0D01*
G01*
X15032629D02*
G03*
X14981354Y2550343I0J-51274D01*
G01*
X14962569Y2456290D02*
G03*
X14981354Y2475075I0J18785D01*
G01*
X14943784D02*
G03*
X14962569Y2456290I18785J0D01*
G01*
X14943784Y2557416D02*
G03*
X14892509Y2608690I-51274J0D01*
G01*
X14892509D02*
G03*
X14841235Y2557416I0J-51274D01*
G01*
X14822450Y2456290D02*
G03*
X14841235Y2475075I0J18785D01*
G01*
X14803665D02*
G03*
X14822450Y2456290I18785J0D01*
G01*
X14803665Y2557416D02*
G03*
X14752391Y2608690I-51274J0D01*
G01*
X14752390D02*
G03*
X14701115Y2557416I0J-51274D01*
G01*
X14682330Y2532490D02*
G03*
X14701115Y2551275I0J18785D01*
G01*
X15431294Y2760029D02*
G03*
X15482568Y2708755I51274J0D01*
G01*
X15431294Y2760032D02*
G03*
X15412511Y2778817I-18785J0D01*
G01*
X15412511D02*
G03*
X15393726Y2760032I0J-18785D01*
G01*
X15342450Y2635439D02*
G03*
X15393726Y2686713I0J51274D01*
G01*
X15291176D02*
G03*
X15342450Y2635439I51274J0D01*
G01*
X15291176Y2766170D02*
G03*
X15272391Y2784955I-18785J0D01*
G01*
X15272391D02*
G03*
X15253606Y2766170I0J-18785D01*
G01*
X15202332Y2708755D02*
G03*
X15253606Y2760029I0J51274D01*
G01*
X15463783D02*
G03*
X15482568Y2741244I18785J0D01*
G01*
X15463783Y2760032D02*
G03*
X15412511Y2811306I-51274J0D01*
G01*
X15412511D02*
G03*
X15361235Y2760032I0J-51274D01*
G01*
X15342450Y2667929D02*
G03*
X15361235Y2686713I0J18785D01*
G01*
X15323665D02*
G03*
X15342450Y2667929I18785J0D01*
G01*
X15323665Y2766170D02*
G03*
X15272391Y2817445I-51274J0D01*
G01*
X15272391D02*
G03*
X15221117Y2766170I0J-51274D01*
G01*
X15202332Y2741244D02*
G03*
X15221117Y2760029I0J18785D01*
G01*
X14508797Y2858755D02*
G03*
X14490012Y2839970I0J-18785D01*
G01*
X14471227Y2816162D02*
G03*
X14490012Y2834947I0J18785D01*
G01*
X14452441D02*
G03*
X14471227Y2816162I18785J0D01*
G01*
X14452441Y2839970D02*
G03*
X14433656Y2858755I-18785J0D01*
G01*
X13026234Y2268796D02*
G03*
X13045020Y2250011I18785J0D01*
G01*
X13070454Y2231226D02*
G03*
X13051671Y2250011I-18785J0D01*
G01*
Y2212441D02*
G03*
X13070454Y2231226I0J18785D01*
G01*
X13045020Y2212441D02*
G03*
X13026234Y2193656I0J-18785D01*
G01*
Y1928796D02*
G03*
X13045020Y1910011I18785J0D01*
G01*
X13093588Y1891226D02*
G03*
X13074803Y1910011I-18785J0D01*
G01*
Y1872441D02*
G03*
X13093588Y1891226I0J18785D01*
G01*
X13045020Y1872441D02*
G03*
X13026234Y1853656I0J-18785D01*
G01*
X4865616Y1594384D02*
X4895000Y1565000D01*
X4865616Y1594384D02*
Y1626770D01*
X4847656Y1644730D02*
X4865616Y1626770D01*
X4782885Y1644730D02*
X4847656D01*
X4745893Y1681722D02*
X4782885Y1644730D01*
X4745893Y1681722D02*
Y1746493D01*
X4727933Y1764453D02*
X4745893Y1746493D01*
X4695547Y1764453D02*
X4727933D01*
X4675000Y1785000D02*
X4695547Y1764452D01*
X4917973Y1587974D02*
X4917974Y1587974D01*
X4898105Y1607842D02*
X4917973Y1587974D01*
X4898105Y1607842D02*
Y1640227D01*
X4861113Y1677219D02*
X4898105Y1640227D01*
X4796342Y1677219D02*
X4861113D01*
X4778382Y1695179D02*
X4796342Y1677219D01*
X4778382Y1695179D02*
Y1759950D01*
X4741390Y1796942D02*
X4778382Y1759950D01*
X4709005Y1796942D02*
X4741390D01*
X4697973Y1807974D02*
X4709005Y1796942D01*
X4697973Y1807974D02*
X4697974Y1807974D01*
X4895000Y1565000D02*
X5233755Y1226245D01*
X4478755Y1981245D02*
X4675000Y1785000D01*
X4917974Y1587974D02*
X5266245Y1239702D01*
X4511245Y1994703D02*
X4697974Y1807974D01*
X5310271Y1459729D02*
X5345000Y1425000D01*
X5277886Y1459729D02*
X5310271D01*
X5240893Y1496722D02*
X5277886Y1459729D01*
X5240893Y1496722D02*
Y1561492D01*
X5222933Y1579452D02*
X5240893Y1561492D01*
X5190548Y1579452D02*
X5222933D01*
X5170000Y1600000D02*
X5190548Y1579452D01*
X5367974Y1447973D02*
X5367974Y1447974D01*
X5323728Y1492219D02*
X5367974Y1447973D01*
X5291343Y1492219D02*
X5323728D01*
X5273383Y1510179D02*
X5291343Y1492219D01*
X5273383Y1510179D02*
Y1574949D01*
X5236390Y1611942D02*
X5273383Y1574949D01*
X5204005Y1611942D02*
X5236390D01*
X5192974Y1622973D02*
X5204005Y1611942D01*
X5192974Y1622973D02*
X5192974Y1622974D01*
X5345000Y1425000D02*
X5383755Y1386245D01*
X4578755Y2191245D02*
X5170000Y1600000D01*
X5367974Y1447974D02*
X5416245Y1399703D01*
X4611245Y2204702D02*
X5192974Y1622974D01*
X5445893Y1624107D02*
X5485000Y1585000D01*
X5445893Y1624107D02*
Y1656492D01*
X5427933Y1674453D02*
X5445893Y1656492D01*
X5395548Y1674453D02*
X5427933D01*
X5375000Y1695000D02*
X5395548Y1674452D01*
X5507973Y1607974D02*
X5507974Y1607974D01*
X5478382Y1637565D02*
X5507973Y1607974D01*
X5478382Y1637565D02*
Y1669950D01*
X5441390Y1706942D02*
X5478382Y1669950D01*
X5409005Y1706942D02*
X5441390D01*
X5397973Y1717973D02*
X5409005Y1706942D01*
X5397973Y1717973D02*
X5397974Y1717974D01*
X5485000Y1585000D02*
X5533755Y1536245D01*
X4678755Y2391245D02*
X5375000Y1695000D01*
X5507974Y1607974D02*
X5566245Y1549703D01*
X4711245Y2404703D02*
X5397974Y1717974D01*
X3883591Y1497644D02*
X3962973Y1577026D01*
X3851206Y1497644D02*
X3883591D01*
X3833245Y1479683D02*
X3851206Y1497644D01*
X3833245Y1414912D02*
Y1479683D01*
X3796253Y1377920D02*
X3833245Y1414912D01*
X3731481Y1377920D02*
X3796253D01*
X3713521Y1359959D02*
X3731481Y1377920D01*
X3713521Y1327573D02*
Y1359959D01*
X3692973Y1307026D02*
X3713521Y1327573D01*
X3939999Y1600000D02*
X3940000Y1599999D01*
X3870134Y1530134D02*
X3940000Y1599999D01*
X3837748Y1530134D02*
X3870134D01*
X3800756Y1493141D02*
X3837748Y1530134D01*
X3800756Y1428370D02*
Y1493141D01*
X3782795Y1410409D02*
X3800756Y1428370D01*
X3718024Y1410409D02*
X3782795D01*
X3681031Y1373416D02*
X3718024Y1410409D01*
X3681031Y1341031D02*
Y1373416D01*
X3670000Y1329999D02*
X3681031Y1341031D01*
X3670000Y1330000D02*
X3670000Y1329999D01*
X3962973Y1577026D02*
X4361245Y1975298D01*
X3616245Y1230298D02*
X3692973Y1307026D01*
X3939999Y1600000D02*
X4328755Y1988755D01*
X3583755Y1243755D02*
X3670000Y1330000D01*
X3700272Y1630272D02*
X3919999Y1849999D01*
X3700272Y1597886D02*
Y1630272D01*
X3663279Y1560894D02*
X3700272Y1597886D01*
X3598508Y1560894D02*
X3663279D01*
X3580547Y1542933D02*
X3598508Y1560894D01*
X3580547Y1510547D02*
Y1542933D01*
X3560000Y1490000D02*
X3580547Y1510547D01*
X3897025Y1872973D02*
X3897025Y1872973D01*
X3667782Y1643729D02*
X3897025Y1872973D01*
X3667782Y1611344D02*
Y1643729D01*
X3649822Y1593383D02*
X3667782Y1611344D01*
X3585050Y1593383D02*
X3649822D01*
X3548058Y1556390D02*
X3585050Y1593383D01*
X3548058Y1524005D02*
Y1556390D01*
X3537026Y1512973D02*
X3548058Y1524005D01*
X3537026Y1512974D02*
X3537026Y1512973D01*
X3919999Y1849999D02*
X4261245Y2191245D01*
X3466245Y1396245D02*
X3560000Y1490000D01*
X3897025Y1872973D02*
X4228755Y2204702D01*
X3433755Y1409703D02*
X3537026Y1512974D01*
X3433755Y1286248D02*
Y1409703D01*
X3466245Y1192114D02*
Y1299705D01*
X3466245Y1299706D02*
X3466245Y1299705D01*
X3466245Y1299706D02*
Y1396245D01*
X3433755Y1286248D02*
X3433755Y1286248D01*
Y1192114D02*
Y1286248D01*
X3415893Y1635893D02*
X3830000Y2050000D01*
X3383508Y1635893D02*
X3415893D01*
X3365547Y1617933D02*
X3383508Y1635893D01*
X3365547Y1585547D02*
Y1617933D01*
X3345000Y1565000D02*
X3365547Y1585547D01*
X3807026Y2072974D02*
X3807026Y2072973D01*
X3402436Y1668383D02*
X3807026Y2072973D01*
X3370050Y1668383D02*
X3402436D01*
X3333058Y1631390D02*
X3370050Y1668383D01*
X3333058Y1599005D02*
Y1631390D01*
X3322026Y1587973D02*
X3333058Y1599005D01*
X3322026Y1587973D02*
X3322026Y1587973D01*
X3830000Y2050000D02*
X4161245Y2381245D01*
X3316245Y1536245D02*
X3345000Y1565000D01*
X3807026Y2072974D02*
X4128755Y2394703D01*
X3283755Y1549703D02*
X3322026Y1587973D01*
X3500000Y4096245D02*
X3936878D01*
X4183755D01*
X3455036D02*
X3500000D01*
X4183755D02*
X4611245Y3668755D01*
X3455036Y4063755D02*
X4170297D01*
X3392569D02*
X3455036D01*
X3341295Y4115030D02*
Y4119003D01*
X3322509Y4137788D02*
X3322510D01*
X3303725Y4038830D02*
Y4119003D01*
X3252450Y3987555D02*
X3252450D01*
X3201175Y4038830D02*
Y4121171D01*
X3182390Y4139955D02*
X3182391D01*
X3163606Y4115030D02*
Y4121171D01*
X3090000Y4063755D02*
X3112331D01*
X3455036Y4096245D02*
Y4096245D01*
X3392569Y4096245D02*
X3455036D01*
X3373784Y4115030D02*
Y4119003D01*
X3322509Y4170278D02*
X3322510D01*
X3271235Y4038830D02*
Y4119003D01*
X3252450Y4020045D02*
X3252450D01*
X3233665Y4038830D02*
Y4121171D01*
X3182390Y4172445D02*
X3182391D01*
X3131116Y4115030D02*
Y4121171D01*
X3090000Y4096245D02*
X3112331D01*
X3090000D02*
Y4096245D01*
X3063755Y4063755D02*
X3090000D01*
X3063755Y4096245D02*
X3090000D01*
X3176445Y3823755D02*
X3240000D01*
X3157660Y3778828D02*
Y3804970D01*
X3138875Y3760043D02*
X3138876D01*
X3120091Y3778828D02*
Y3804970D01*
X3101305Y3823755D02*
X3101306D01*
X3082521Y3766340D02*
Y3804970D01*
X3063736Y3747555D02*
X3063736D01*
X3044951Y3766340D02*
Y3804970D01*
X2982510Y3823755D02*
X3026166D01*
X3240000D02*
X3398755D01*
X2982510Y3856245D02*
X3385298D01*
X2692114D02*
X2750000D01*
X2768785Y3875030D02*
Y3875032D01*
X2820059Y3926307D02*
X2820060D01*
X2871334Y3802435D02*
Y3875032D01*
X2890119Y3783650D02*
X2890119D01*
X2908904Y3802435D02*
Y3804971D01*
X2960178Y3856245D02*
X2982510D01*
X2692114Y3823755D02*
Y3823755D01*
X2750000D01*
X2801275Y3875030D02*
Y3875032D01*
X2820059Y3893817D02*
X2820060D01*
X2838844Y3802435D02*
Y3875032D01*
X2890119Y3751160D02*
X2890119D01*
X2941394Y3802435D02*
Y3804971D01*
X2960178Y3823755D02*
X2982510D01*
Y3823755D02*
Y3823755D01*
X2683755Y3856245D02*
X2692114D01*
X2683755Y3823755D02*
X2692114D01*
X2800000Y3583755D02*
X3458755D01*
X2743935D02*
X2800000D01*
X2725151Y3548828D02*
Y3564970D01*
X2706365Y3530043D02*
X2706366D01*
X2687581Y3548828D02*
Y3564970D01*
X2668796Y3583755D02*
X2668796D01*
X2650011Y3516340D02*
Y3564970D01*
X2631226Y3497555D02*
X2631226D01*
X2612441Y3516340D02*
Y3564970D01*
X2550000Y3583755D02*
X2593656D01*
X2303755Y3616245D02*
X2328581D01*
X2303755Y3583755D02*
X2328581D01*
Y3616245D02*
X2387550D01*
X2438824Y3551877D02*
Y3564971D01*
X2457609Y3533092D02*
X2457610D01*
X2476394Y3551877D02*
Y3564971D01*
X2527669Y3616245D02*
X2550000D01*
X2328581Y3583755D02*
Y3583755D01*
X2387550D01*
X2406335Y3551877D02*
Y3564971D01*
X2457609Y3500602D02*
X2457610D01*
X2508884Y3551877D02*
Y3564971D01*
X2527669Y3583755D02*
X2550000D01*
Y3583755D02*
Y3583755D01*
Y3616245D02*
X3445297D01*
X11716245Y2160000D02*
Y2190000D01*
X11642490Y2333458D02*
Y2380000D01*
Y2333458D02*
X11680435Y2295513D01*
X11693718Y2290011D02*
X11754912D01*
X11773697Y2271226D02*
Y2271226D01*
X11735030Y2252441D02*
X11754912D01*
X11716245Y2190000D02*
Y2233656D01*
X11642490Y2752629D02*
Y3100000D01*
X11661275Y2733844D02*
X11661277D01*
X11712552Y2682569D02*
Y2682569D01*
X11585493Y2631295D02*
X11661277D01*
X11566708Y2612510D02*
Y2612510D01*
X11585493Y2593725D02*
X11667415D01*
X11718690Y2542450D02*
Y2542450D01*
X11585074Y2491176D02*
X11667415D01*
X11566290Y2472391D02*
Y2472391D01*
X11585074Y2453606D02*
X11591215D01*
X11642490Y2380000D02*
Y2402331D01*
X11610000Y3100000D02*
X11610000D01*
Y2752629D02*
Y3100000D01*
X11661275Y2701354D02*
X11661277D01*
X11680062Y2682569D02*
Y2682569D01*
X11585493Y2663784D02*
X11661277D01*
X11534218Y2612510D02*
Y2612510D01*
X11585493Y2561235D02*
X11667415D01*
X11686200Y2542450D02*
Y2542450D01*
X11585074Y2523665D02*
X11667415D01*
X11533800Y2472391D02*
Y2472391D01*
X11585074Y2421116D02*
X11591215D01*
X11610000Y2380000D02*
Y2402331D01*
X11610000Y2380000D02*
X11610000D01*
X11642490Y3100000D02*
Y3242490D01*
X11610000Y3100000D02*
Y3255948D01*
Y2320000D02*
Y2380000D01*
X11642490Y3242490D02*
X12237510Y3837510D01*
X11610000Y3255948D02*
X12224052Y3870000D01*
X11610000Y2320000D02*
X11683755Y2246245D01*
Y2160000D02*
Y2246245D01*
X12547510Y3597510D02*
X13517490D01*
X12434001Y3484001D02*
X12510000Y3560000D01*
X12434001Y3457435D02*
X12456654Y3434781D01*
X12407435Y3430869D02*
X12430088Y3408215D01*
X12407435Y3430869D02*
X12407435Y3430869D01*
X12350000Y3400000D02*
X12380869Y3430869D01*
X12510000Y3560000D02*
X12547510Y3597510D01*
X12345000Y3395000D02*
X12350000Y3400000D01*
X12725000Y3315000D02*
X12817509Y3407510D01*
X12644001Y3234001D02*
X12725000Y3315000D01*
X12644001Y3207435D02*
X12666655Y3184781D01*
X12617435Y3180869D02*
X12640089Y3158215D01*
X12617435Y3180869D02*
X12617435Y3180869D01*
X12560000Y3150000D02*
X12590869Y3180869D01*
X12545000Y3135000D02*
X12560000Y3150000D01*
X12322026Y3417973D02*
X12534053Y3630000D01*
X12333968Y3383968D02*
X12345000Y3395000D01*
X12333968Y3383968D02*
Y3383968D01*
X12000404Y3050402D02*
X12333968Y3383968D01*
X11991245Y2930320D02*
Y3028202D01*
X11927270Y2866345D02*
X11927271D01*
X11863296Y2930320D02*
Y3067742D01*
X11881956Y3112901D02*
X12184579Y3415525D01*
X11809496Y3129495D02*
X12140118Y3460116D01*
X11800326Y2834860D02*
Y3107283D01*
X11831811Y2803375D02*
X11927271D01*
X11991245Y2717071D02*
Y2739401D01*
X12322026Y3417973D02*
X12322026Y3417973D01*
X12281981Y3377928D02*
X12322026Y3417973D01*
X11977415Y3073361D02*
X12281981Y3377928D01*
X11958755Y2930320D02*
Y3028202D01*
X11927270Y2898835D02*
X11927271D01*
X11895785Y2930320D02*
Y3067742D01*
X11904956Y3089954D02*
X12212376Y3397374D01*
Y3397938D01*
X11786496Y3152442D02*
X12117144Y3483090D01*
X11767836Y2834860D02*
Y3107283D01*
X11831811Y2770885D02*
X11927271D01*
X11958755Y2717071D02*
Y2739401D01*
X11958755Y2717071D02*
X11958755D01*
X11991245Y2526044D02*
Y2717071D01*
X12534053Y3630000D02*
X13530948D01*
X13441762Y3407510D02*
X13683755Y3165518D01*
X13455220Y3440000D02*
X13716245Y3178975D01*
X12529246Y3119246D02*
X12545000Y3135000D01*
X12366479Y3191468D02*
X12438748Y3119197D01*
X12134496Y3004012D02*
X12322003Y3191519D01*
X12125326Y2322030D02*
Y2981800D01*
X12156811Y2290545D02*
X12156811D01*
X12188296Y2322030D02*
Y2942259D01*
X12206956Y2987418D02*
X12298978Y3079440D01*
X12389451Y3079440D02*
X12389451Y3079440D01*
X12389451Y3079440D02*
X12389451Y3079439D01*
X12389451Y3079440D01*
X12325415Y2924930D02*
X12389386Y2988901D01*
X12316245Y2177071D02*
Y2902719D01*
X12522026Y3157973D02*
X12522026Y3157973D01*
X12506273Y3142220D02*
X12522026Y3157973D01*
X12461718Y3142175D02*
X12461718Y3142175D01*
X12389452Y3214441D02*
X12461718Y3142175D01*
X12111496Y3026959D02*
X12299083Y3214545D01*
X12092836Y2322030D02*
Y2981800D01*
X12156811Y2258056D02*
X12156811D01*
X12220785Y2322030D02*
Y2942259D01*
X12229956Y2964471D02*
X12321951Y3056466D01*
X12366477Y3056466D02*
X12366478Y3056466D01*
X12366477Y3056466D02*
X12366478Y3056466D01*
X12366478Y3056466D01*
X12302415Y2947878D02*
X12366562Y3012024D01*
X12283755Y2177071D02*
Y2902719D01*
X12283755Y2177071D02*
X12283755D01*
X12522026Y3157973D02*
X12804053Y3440000D01*
X12817509Y3407510D02*
X13441762D01*
X12804053Y3440000D02*
X13455220D01*
X12316245Y2126044D02*
Y2177071D01*
X12283755Y2126044D02*
Y2177071D01*
X11958755Y2526044D02*
Y2717071D01*
X11683755Y2126044D02*
Y2160000D01*
X11716245Y2126044D02*
Y2160000D01*
X11391253Y2760000D02*
Y3551253D01*
Y2648796D02*
Y2760000D01*
X11410038Y2630011D02*
X11442461D01*
X11461246Y2611226D02*
Y2611226D01*
X11410038Y2592441D02*
X11442461D01*
X11391253Y2530000D02*
Y2573656D01*
Y2526044D02*
Y2530000D01*
X14562025Y2292026D02*
X14604053Y2250000D01*
X14524387Y2329666D02*
X14562025Y2292026D01*
X14524387Y2329666D02*
X14524387Y2329666D01*
X14492287Y2324132D02*
X14497820Y2329666D01*
X14465721Y2350698D02*
X14471255Y2356232D01*
X14471254Y2382798D02*
X14471255Y2382798D01*
X14454732Y2399320D02*
X14471255Y2382798D01*
X14439320Y2399320D02*
X14454732D01*
X14295679D02*
X14439320D01*
X14554732Y2549320D02*
X14604053Y2500000D01*
X14498796Y2549320D02*
X14539999D01*
X14480011Y2522709D02*
Y2530535D01*
X14461226Y2503924D02*
X14461226D01*
X14442441Y2522709D02*
Y2530535D01*
X14380000Y2549320D02*
X14423656D01*
X14539999D02*
X14554732D01*
X14295679D02*
X14380000D01*
X14604053Y2500000D02*
X14660001D01*
X14600000Y2708755D02*
X15180000D01*
X14518796D02*
X14600000D01*
X14500011Y2684499D02*
Y2689970D01*
X14481226Y2665715D02*
X14481226D01*
X14462440Y2684499D02*
Y2689970D01*
X14400000Y2708755D02*
X14443655D01*
X14303754D02*
X14400000D01*
X15600000Y2250000D02*
X15650000Y2200000D01*
X15382925Y2250000D02*
X15600000D01*
X15331651Y2301275D02*
Y2301277D01*
X15312868Y2320062D02*
X15312868D01*
X15294083Y2236353D02*
Y2301277D01*
X15242807Y2185079D02*
X15242807D01*
X15191533Y2236353D02*
Y2307416D01*
X15172748Y2326200D02*
X15172748D01*
X15153963Y2225075D02*
Y2307416D01*
X15102689Y2173800D02*
X15102689D01*
X15051414Y2225075D02*
Y2307416D01*
X15032629Y2326200D02*
X15032629D01*
X15013844Y2225075D02*
Y2307416D01*
X14962569Y2173800D02*
X14962569D01*
X14911295Y2225075D02*
Y2307416D01*
X14892509Y2326200D02*
X14892509D01*
X14873724Y2225075D02*
Y2307416D01*
X14822450Y2173800D02*
X14822450D01*
X14771175Y2225075D02*
Y2307416D01*
X14752390Y2326200D02*
X14752391D01*
X14733606Y2301275D02*
Y2307416D01*
X14660001Y2250000D02*
X14682330D01*
X15650000Y2245948D02*
X15650000Y2245948D01*
X15613457Y2282490D02*
X15650000Y2245948D01*
X15382925Y2282490D02*
X15613457D01*
X15364140Y2301275D02*
Y2301277D01*
X15312868Y2352552D02*
X15312868D01*
X15261592Y2236353D02*
Y2301277D01*
X15242807Y2217569D02*
X15242807D01*
X15224022Y2236353D02*
Y2307416D01*
X15172748Y2358690D02*
X15172748D01*
X15121474Y2225075D02*
Y2307416D01*
X15102689Y2206290D02*
X15102689D01*
X15083904Y2225075D02*
Y2307416D01*
X15032629Y2358690D02*
X15032629D01*
X14981354Y2225075D02*
Y2307416D01*
X14962569Y2206290D02*
X14962569D01*
X14943784Y2225075D02*
Y2307416D01*
X14892509Y2358690D02*
X14892509D01*
X14841235Y2225075D02*
Y2307416D01*
X14822450Y2206290D02*
X14822450D01*
X14803665Y2225075D02*
Y2307416D01*
X14752390Y2358690D02*
X14752391D01*
X14701115Y2301275D02*
Y2307416D01*
X14660001Y2282490D02*
X14682330D01*
X14660001D02*
Y2282490D01*
X15172748Y2500000D02*
X15560001D01*
X15153963Y2481213D02*
Y2481215D01*
X15102689Y2429938D02*
X15102689D01*
X15051414Y2481213D02*
Y2550343D01*
X15032629Y2569128D02*
X15032629D01*
X15013844Y2475075D02*
Y2550343D01*
X14962569Y2423800D02*
X14962569D01*
X14911295Y2475075D02*
Y2557416D01*
X14892509Y2576200D02*
X14892509D01*
X14873724Y2475075D02*
Y2557416D01*
X14822450Y2423800D02*
X14822450D01*
X14771175Y2475075D02*
Y2557416D01*
X14752390Y2576200D02*
X14752391D01*
X14733606Y2551275D02*
Y2557416D01*
X14660001Y2500000D02*
X14682330D01*
X15560001Y2532490D02*
Y2532490D01*
X15172748Y2532490D02*
X15560001D01*
X15121474Y2481213D02*
Y2481215D01*
X15102689Y2462428D02*
X15102689D01*
X15083904Y2481213D02*
Y2550343D01*
X15032629Y2601617D02*
X15032629D01*
X14981354Y2475075D02*
Y2550343D01*
X14962569Y2456290D02*
X14962569D01*
X14943784Y2475075D02*
Y2557416D01*
X14892509Y2608690D02*
X14892509D01*
X14841235Y2475075D02*
Y2557416D01*
X14822450Y2456290D02*
X14822450D01*
X14803665Y2475075D02*
Y2557416D01*
X14752390Y2608690D02*
X14752391D01*
X14701115Y2551275D02*
Y2557416D01*
X14660001Y2532490D02*
X14682330D01*
X14660001D02*
Y2532490D01*
X15482568Y2708755D02*
X15870000D01*
X15431294Y2760029D02*
Y2760032D01*
X15412511Y2778817D02*
X15412511D01*
X15393726Y2686713D02*
Y2760032D01*
X15342450Y2635439D02*
X15342450D01*
X15291176Y2686713D02*
Y2766170D01*
X15272391Y2784955D02*
X15272391D01*
X15253606Y2760029D02*
Y2766170D01*
X15180000Y2708755D02*
X15202332D01*
X15870000Y2741244D02*
Y2741245D01*
X15482568Y2741244D02*
X15870000D01*
X15463783Y2760029D02*
Y2760032D01*
X15412511Y2811306D02*
X15412511D01*
X15361235Y2686713D02*
Y2760032D01*
X15342450Y2667929D02*
X15342450D01*
X15323665Y2686713D02*
Y2766170D01*
X15272391Y2817445D02*
X15272391D01*
X15221117Y2760029D02*
Y2766170D01*
X15180000Y2741244D02*
X15202332D01*
X15180000D02*
Y2741245D01*
X14830000Y2858755D02*
X16125000D01*
X14508797D02*
X14830000D01*
X14490012Y2834947D02*
Y2839970D01*
X14471227Y2816162D02*
X14471227D01*
X14452441Y2834947D02*
Y2839970D01*
X14389999Y2858755D02*
X14433656D01*
X14303755D02*
X14389999D01*
X15870000Y2708755D02*
X15941245D01*
X15870000Y2741245D02*
X15954703D01*
X14303755D02*
X15180000D01*
X15560001Y2500000D02*
X15750000D01*
X15560001Y2532490D02*
X15763458D01*
X14617509D02*
X14660001D01*
X15650000Y2200000D02*
X15883755Y1966245D01*
X14604053Y2250000D02*
X14660001D01*
X15650000Y2245948D02*
X15916245Y1979703D01*
X14617509Y2282490D02*
X14660001D01*
X13026234Y2126049D02*
Y2150000D01*
X13045000Y2320000D02*
X13233755Y2508755D01*
X13026234Y2301235D02*
X13045000Y2320000D01*
X13026234Y2268796D02*
Y2301235D01*
X13045020Y2250011D02*
X13051671D01*
X13070454Y2231226D02*
Y2231226D01*
X13045020Y2212441D02*
X13051671D01*
X13026234Y2150000D02*
Y2193656D01*
X10973584Y2463927D02*
Y3142762D01*
X13026234Y1253765D02*
Y1810000D01*
Y1973960D02*
X13032274Y1980000D01*
X13026234Y1928796D02*
Y1973960D01*
X13045020Y1910011D02*
X13074803D01*
X13093588Y1891226D02*
Y1891226D01*
X13045020Y1872441D02*
X13074803D01*
X13026234Y1810000D02*
Y1853656D01*
X13032274Y1980000D02*
X13033363Y1981090D01*
X13026234Y1253765D02*
X13139999Y1140000D01*
X4511245Y1994703D02*
Y2771245D01*
X4478755Y1981245D02*
Y2771245D01*
X5266245Y1192114D02*
Y1239702D01*
X5233755Y1192114D02*
Y1226245D01*
X4611245Y3148755D02*
Y3668755D01*
X4170297Y4063755D02*
X4578755Y3655297D01*
Y3148755D02*
Y3655297D01*
X4478755Y3148755D02*
Y3515298D01*
X4107510Y3932490D02*
X4511245Y3528755D01*
X4094053Y3900000D02*
X4478755Y3515298D01*
X4511245Y3148755D02*
Y3528755D01*
X12993745Y1240308D02*
X13126543Y1107510D01*
X12993745Y1240308D02*
Y1973960D01*
X13370000Y1909999D02*
X13393755Y1933755D01*
Y2016245D01*
X13583755Y2206244D02*
Y2271245D01*
X13426245Y1933755D02*
Y2002787D01*
Y1933755D02*
X13450000Y1909999D01*
X13426245Y2002787D02*
X13616245Y2192787D01*
X13575000Y2280000D02*
X13583755Y2271245D01*
X13393755Y2016245D02*
X13583755Y2206244D01*
X13616245Y2192787D02*
Y2271245D01*
X13625000Y2280000D01*
X15296085Y2018915D02*
Y2026620D01*
Y2018915D02*
X15314999Y2000000D01*
X15169708Y2033749D02*
X15288956D01*
X15296085Y2026620D01*
X15288951Y2066239D02*
X15296080Y2073368D01*
X15156250Y2066239D02*
X15288951D01*
X14939999Y1920000D02*
X14963754Y1943755D01*
X14939999Y2000000D02*
X14963754Y1976245D01*
X15066257D01*
X15156250Y2066239D01*
X15296080Y2081075D02*
X15314995Y2099990D01*
X15296080Y2073368D02*
Y2081075D01*
X14963754Y1943755D02*
X15079713D01*
X15169708Y2033749D01*
X13063754Y3206245D02*
X13574521D01*
X13039999Y3230000D02*
X13063754Y3206245D01*
X13039999Y3150000D02*
X13063754Y3173755D01*
X13574521Y3206245D02*
X13616245Y3164521D01*
X13063754Y3173755D02*
X13561064D01*
X10890000Y3230000D02*
X10913755Y3206245D01*
X10956049D01*
X11006074Y3156220D01*
Y1981044D02*
Y3156220D01*
X10890000Y3150000D02*
X10913755Y3173755D01*
X10942591D01*
X10973584Y3142762D01*
Y1919096D02*
Y2450469D01*
X11027499Y1950000D02*
X11046414Y1931085D01*
X11008584Y1968915D02*
X11027499Y1950000D01*
X13616245Y3078755D02*
X13625000Y3070000D01*
X13575000D02*
X13583755Y3078755D01*
X13616245Y3078755D02*
Y3164521D01*
X13583755Y3078755D02*
Y3151064D01*
X13561064Y3173755D02*
X13583755Y3151064D01*
X14303914Y2591085D02*
X14558916D01*
X14617509Y2532490D01*
X14295000Y2600000D02*
X14303914Y2591085D01*
X16033755Y1555573D02*
Y2216245D01*
X14295000Y2550000D02*
X14295679Y2549320D01*
X15750000Y2500000D02*
X16033755Y2216245D01*
X15763458Y2532490D02*
X16066245Y2229703D01*
Y1555573D02*
Y2229703D01*
X14472665Y2427335D02*
Y2427335D01*
Y2427335D02*
X14617509Y2282490D01*
X14303914Y2441085D02*
X14458916D01*
X14472665Y2427335D01*
X14295000Y2450000D02*
X14303914Y2441085D01*
X14295000Y2400000D02*
X14295679Y2399320D01*
X15916245Y1555573D02*
Y1979703D01*
X15883755Y1555573D02*
Y1966245D01*
X14303755Y2891245D02*
X16138458D01*
X16366245Y2663458D01*
X14295000Y2900000D02*
X14303755Y2891245D01*
X16366245Y2096755D02*
Y2663458D01*
X14295000Y2850000D02*
X14303755Y2858755D01*
X16125000D02*
X16333754Y2650000D01*
Y2083298D02*
Y2650000D01*
X16300000Y1514000D02*
X16314915Y1528915D01*
Y1536733D02*
X16333755Y1555573D01*
X16314915Y1528915D02*
Y1536733D01*
X16333755Y1555573D02*
Y2083297D01*
X16399998Y1408000D02*
Y1514000D01*
X16333754Y2083298D02*
X16333755Y2083297D01*
X16300000Y1408000D02*
Y1514000D01*
X16385085Y1528915D02*
X16399998Y1514000D01*
X16385085Y1528915D02*
Y1536733D01*
X16366245Y1555573D02*
Y2096755D01*
X16366245Y2096755D02*
X16366245Y2096755D01*
Y1555573D02*
X16385085Y1536733D01*
X14295000Y2700000D02*
X14303754Y2708755D01*
X14295000Y2750000D02*
X14303755Y2741245D01*
X16149998Y1408000D02*
Y1514000D01*
X16164915Y1528915D01*
Y1536733D01*
X16235085Y1528915D02*
Y1536733D01*
X16250000Y1408000D02*
Y1514000D01*
X16235085Y1528915D02*
X16250000Y1514000D01*
X15941245Y2708755D02*
X16183755Y2466245D01*
Y1555573D02*
Y2466245D01*
X16164915Y1536733D02*
X16183755Y1555573D01*
X15954703Y2741245D02*
X16216245Y2479703D01*
Y1555573D02*
X16235085Y1536733D01*
X16216245Y1555573D02*
Y2479703D01*
X15999998Y1514000D02*
X16014915Y1528915D01*
X15999998Y1408000D02*
Y1514000D01*
X16085085Y1528915D02*
Y1536733D01*
X16066245Y1555573D02*
X16085085Y1536733D01*
Y1528915D02*
X16100000Y1514000D01*
Y1408000D02*
Y1514000D01*
X16014915Y1536733D02*
X16033755Y1555573D01*
X16014915Y1528915D02*
Y1536733D01*
X15850000Y1408000D02*
Y1514000D01*
X15864914Y1528915D01*
Y1536733D02*
X15883755Y1555573D01*
X15950000Y1408000D02*
Y1514000D01*
X15935085Y1528915D02*
X15950000Y1514000D01*
X15864914Y1528915D02*
Y1536733D01*
X15935085Y1528915D02*
Y1536733D01*
X15916245Y1555573D02*
X15935085Y1536733D01*
X11357984Y2102989D02*
Y2129904D01*
Y2102989D02*
X11483755Y1977218D01*
Y1555573D02*
Y1977218D01*
X11516245Y1555573D02*
Y1990676D01*
X11391257Y2115664D02*
Y2373956D01*
Y2115664D02*
X11516245Y1990676D01*
X13126543Y1107510D02*
X13383458D01*
X13139999Y1140000D02*
X13370000D01*
X13466245Y1190297D02*
Y1260426D01*
X13383458Y1107510D02*
X13466245Y1190297D01*
X13433755Y1203755D02*
Y1260426D01*
X13370000Y1140000D02*
X13433755Y1203755D01*
X15600000Y1408000D02*
Y1514000D01*
X15461069Y2033751D02*
X15633755Y1861064D01*
X15433916Y2026622D02*
X15441045Y2033751D01*
X15461069D01*
X15414999Y2000000D02*
X15433916Y2018915D01*
X15700000Y1408000D02*
Y1514000D01*
X15614914Y1536733D02*
X15633755Y1555573D01*
X15614914Y1528915D02*
Y1536733D01*
X15433910Y2073371D02*
X15441039Y2066241D01*
X15633755Y1555573D02*
Y1861064D01*
X15666245Y1555573D02*
Y1874522D01*
Y1555573D02*
X15685085Y1536733D01*
Y1528915D02*
X15700000Y1514000D01*
X15433910Y2073371D02*
Y2081075D01*
X15414995Y2099990D02*
X15433910Y2081075D01*
X15441039Y2066241D02*
X15474525D01*
X15666245Y1874522D01*
X15433916Y2018915D02*
Y2026622D01*
X15685085Y1528915D02*
Y1536733D01*
X15600000Y1514000D02*
X15614914Y1528915D01*
X11200000Y1408000D02*
X11207915Y1415915D01*
Y1529733D01*
X11233755Y1555573D01*
X11292085Y1415915D02*
Y1529733D01*
Y1415915D02*
X11300000Y1408000D01*
X11266245Y1555573D02*
X11292085Y1529733D01*
X11008584Y1868915D02*
X11027499Y1850000D01*
X10973584Y1919096D02*
X11008584Y1884096D01*
X11006074Y1981044D02*
X11008584Y1978534D01*
Y1968915D02*
Y1978534D01*
Y1868915D02*
Y1884096D01*
X11046414Y1868915D02*
Y1876626D01*
X11053543Y1883755D01*
Y1916245D02*
X11149703D01*
X11046414Y1923374D02*
X11053543Y1916245D01*
X11027499Y1850000D02*
X11046414Y1868915D01*
Y1923374D02*
Y1931085D01*
X11053543Y1883755D02*
X11136245D01*
X11266245Y1555573D02*
Y1799703D01*
X11149703Y1916245D02*
X11266245Y1799703D01*
X11136245Y1883755D02*
X11233755Y1786245D01*
Y1555573D02*
Y1786245D01*
X12993745Y2314693D02*
X13220297Y2541245D01*
X13233755Y2508755D02*
X13496245D01*
X13220297Y2541245D02*
X13496245D01*
X12993745Y2126049D02*
Y2314693D01*
X14192085Y1415915D02*
Y1529733D01*
Y1415915D02*
X14200000Y1408000D01*
X14166245Y1555573D02*
X14192085Y1529733D01*
X14107915D02*
X14133755Y1555573D01*
X14107915Y1415915D02*
Y1529733D01*
X14100000Y1408000D02*
X14107915Y1415915D01*
X14042085D02*
X14050000Y1408000D01*
X14016245Y1555573D02*
X14042085Y1529733D01*
Y1415915D02*
Y1529733D01*
X13957915Y1415915D02*
Y1529733D01*
X13950000Y1408000D02*
X13957915Y1415915D01*
Y1529733D02*
X13983755Y1555573D01*
X13866245Y1555573D02*
X13892085Y1529733D01*
Y1415915D02*
X13905000Y1402998D01*
X13892085Y1415915D02*
Y1529733D01*
X13804515Y1412515D02*
X13807915Y1415915D01*
Y1529733D02*
X13833755Y1555573D01*
X13807915Y1415915D02*
Y1529733D01*
X13742085Y1415915D02*
X13755000Y1402999D01*
X13742085Y1415915D02*
Y1529733D01*
X13716245Y1555573D02*
X13742085Y1529733D01*
X13657915Y1529733D02*
X13683755Y1555573D01*
X13657915Y1415915D02*
Y1529733D01*
X13650000Y1408000D02*
X13657915Y1415915D01*
X14125000Y2280000D02*
X14133755Y2271245D01*
X14166245Y1555573D02*
Y2271245D01*
X14175000Y2280000D01*
X14133755Y1555573D02*
Y2271245D01*
X13983755Y1555573D02*
Y2271245D01*
X14016245Y2271245D02*
X14025000Y2280000D01*
X14016245Y1555573D02*
Y2271245D01*
X13975000Y2280000D02*
X13983755Y2271245D01*
X13825000Y2280000D02*
X13833755Y2271244D01*
Y1555573D02*
Y2271244D01*
X13866245Y2271245D02*
X13875000Y2280000D01*
X13866245Y1555573D02*
Y2271245D01*
X13683755Y1555573D02*
Y2271245D01*
X13675000Y2280000D02*
X13683755Y2271245D01*
X13716245Y1555573D02*
Y2271245D01*
X13725000Y2280000D01*
X11992085Y1415915D02*
X12000000Y1408000D01*
X11992085Y1415915D02*
Y1529733D01*
X11966245Y1555573D02*
X11992085Y1529733D01*
X11900000Y1408000D02*
X11907915Y1415915D01*
Y1529733D01*
X11933755Y1555573D01*
X11816245Y1555573D02*
X11842085Y1529733D01*
Y1415915D02*
X11850000Y1408000D01*
X11842085Y1415915D02*
Y1529733D01*
X11750000Y1408000D02*
X11757915Y1415915D01*
Y1529733D01*
X11783755Y1555573D01*
X11692085Y1415915D02*
Y1529733D01*
Y1415915D02*
X11700000Y1408000D01*
X11666245Y1555573D02*
X11692085Y1529733D01*
X11600000Y1408000D02*
X11607915Y1415915D01*
Y1529733D01*
X11633755Y1555573D01*
X11966245Y1555573D02*
Y1650000D01*
X11933755Y1555573D02*
Y1663458D01*
X11816245Y1555573D02*
Y1710297D01*
X11783755Y1555573D02*
Y1723755D01*
X11666245Y1555573D02*
Y1730000D01*
X11633755Y1555573D02*
Y1743458D01*
X11542085Y1415915D02*
Y1529733D01*
Y1415915D02*
X11550000Y1408000D01*
X11516245Y1555573D02*
X11542085Y1529733D01*
X11457915Y1529733D02*
X11483755Y1555573D01*
X11450000Y1408000D02*
X11457915Y1415915D01*
Y1529733D01*
X1541085Y1032415D02*
X1550000Y1023500D01*
X1450000D02*
X1458915Y1032415D01*
Y1157234D01*
X1476267Y1174585D01*
X1476626D02*
X1483755Y1181714D01*
Y1283458D01*
X1541085Y1032415D02*
Y1157233D01*
X1523734Y1174585D02*
X1541085Y1157233D01*
X1523374Y1174585D02*
X1523734D01*
X1516245Y1181714D02*
Y1270000D01*
X1476267Y1174585D02*
X1476626D01*
X1516245Y1181714D02*
X1523374Y1174585D01*
X1308915Y1032415D02*
Y1157234D01*
X1326626Y1174585D02*
X1333755Y1181714D01*
X1326267Y1174585D02*
X1326626D01*
X1333755Y1181714D02*
Y1221048D01*
X1300000Y1023500D02*
X1308915Y1032415D01*
X1391085D02*
Y1157234D01*
X1308915D02*
X1326267Y1174585D01*
X1366245Y1181714D02*
X1373374Y1174585D01*
X1373734D02*
X1391085Y1157234D01*
X1366245Y1181714D02*
Y1234505D01*
X1366245Y1234506D02*
X1366245Y1234505D01*
X1373374Y1174585D02*
X1373734D01*
X1333755Y1221048D02*
X1333755Y1221048D01*
X1391085Y1032415D02*
X1400000Y1023500D01*
X1176267Y1174585D02*
X1176626D01*
X1183755Y1181714D02*
Y1306245D01*
X1183755Y1306245D02*
X1183755Y1306245D01*
X1241085Y1032415D02*
X1250000Y1023500D01*
X1158915Y1032415D02*
Y1157233D01*
X1223734Y1174585D02*
X1241085Y1157234D01*
Y1032415D02*
Y1157234D01*
X1176626Y1174585D02*
X1183755Y1181714D01*
X1216245Y1326245D02*
X1216245Y1326245D01*
Y1181714D02*
Y1326245D01*
X1150000Y1023500D02*
X1158915Y1032415D01*
X1223374Y1174585D02*
X1223734D01*
X1158915Y1157233D02*
X1176267Y1174585D01*
X1216245Y1181714D02*
X1223374Y1174585D01*
X1000000Y1023500D02*
X1008915Y1032415D01*
Y1157233D01*
X1033755Y1181714D02*
Y1201048D01*
X1033755Y1201048D02*
X1033755Y1201048D01*
X1066245Y1181714D02*
Y1214505D01*
X1008915Y1157233D02*
X1026267Y1174585D01*
X1066245Y1214506D02*
X1066245Y1214505D01*
Y1181714D02*
X1073374Y1174585D01*
X1026626D02*
X1033755Y1181714D01*
X1026267Y1174585D02*
X1026626D01*
X1073374D02*
X1073734D01*
X1091085Y1032415D02*
X1100000Y1023500D01*
X1033755Y1201048D02*
Y1592787D01*
X1066245Y1214506D02*
Y1606245D01*
X1091085Y1032415D02*
Y1157234D01*
X1073734Y1174585D02*
X1091085Y1157234D01*
X3491085Y1032415D02*
X3500000Y1023500D01*
X3400000D02*
X3408915Y1032415D01*
Y1167274D01*
X3433755Y1192114D01*
X3491085Y1032415D02*
Y1167274D01*
X3466245Y1192114D02*
X3491085Y1167274D01*
X3341085Y1032415D02*
X3350000Y1023500D01*
X3250000D02*
X3258915Y1032415D01*
X3316245Y1192114D02*
X3341085Y1167274D01*
Y1032415D02*
Y1167274D01*
X3258915Y1167274D02*
X3283755Y1192114D01*
X3258915Y1032415D02*
Y1167274D01*
X3191085Y1032415D02*
X3200000Y1023500D01*
X3100000D02*
X3108915Y1032415D01*
Y1167274D02*
X3133755Y1192114D01*
X3166245D02*
X3191085Y1167274D01*
X3108915Y1032415D02*
Y1167274D01*
X3191085Y1032415D02*
Y1167274D01*
X4361245Y1975298D02*
Y2771245D01*
X3616245Y1182074D02*
X3641085Y1157233D01*
X4328755Y1988755D02*
Y2771245D01*
X3558915Y1157234D02*
X3583755Y1182074D01*
X3616245Y1182074D02*
Y1230298D01*
X3583755Y1182074D02*
Y1243755D01*
X3641085Y1032415D02*
Y1157233D01*
Y1032415D02*
X3650000Y1023500D01*
X3550000D02*
X3558915Y1032415D01*
Y1157234D01*
X4228755Y3148755D02*
Y3305298D01*
X4261245Y3148755D02*
Y3318755D01*
Y3148755D02*
X4270000Y3140000D01*
X4220000D02*
X4228755Y3148755D01*
X4361245D02*
X4370000Y3140000D01*
X4320000D02*
X4328755Y3148755D01*
X4361245D02*
Y3458755D01*
X4328755Y3148755D02*
Y3445298D01*
X4511245Y3148755D02*
X4520000Y3140000D01*
X4470000D02*
X4478755Y3148755D01*
X4611245Y3148755D02*
X4620000Y3140000D01*
X4570000D02*
X4578755Y3148755D01*
X4778755Y2561245D02*
X5683755Y1656245D01*
X4811245Y2574702D02*
Y2771245D01*
X4770000Y2780000D02*
X4778755Y2771245D01*
Y2561245D02*
Y2771245D01*
X4811245Y2771245D02*
X4820000Y2780000D01*
X4711245Y2404703D02*
Y2771245D01*
X4678755Y2391245D02*
Y2771245D01*
X4711245Y2771245D02*
X4720000Y2780000D01*
X4670000D02*
X4678755Y2771245D01*
X4578755Y2191245D02*
Y2771245D01*
X4611245Y2771245D02*
X4620000Y2780000D01*
X4611245Y2204702D02*
Y2771245D01*
X4570000Y2780000D02*
X4578755Y2771245D01*
X4320000Y2780000D02*
X4328755Y2771245D01*
X4361245D02*
X4370000Y2780000D01*
X4261245Y2191245D02*
Y2771245D01*
X4270000Y2780000D01*
X4220000D02*
X4228755Y2771245D01*
Y2204702D02*
Y2771245D01*
X4120000Y2780000D02*
X4128755Y2771245D01*
X4161245Y2771245D02*
X4170000Y2780000D01*
X4028755Y2574703D02*
Y2771245D01*
X4061245Y2771245D02*
X4070000Y2780000D01*
X4061245Y2561245D02*
Y2771245D01*
X4020000Y2780000D02*
X4028755Y2771245D01*
X4511245D02*
X4520000Y2780000D01*
X4470000D02*
X4478755Y2771245D01*
X13496245Y2541245D02*
X13505000Y2550000D01*
X13496245Y2508755D02*
X13505000Y2500000D01*
X12986617Y2118920D02*
X12993745Y2126049D01*
X13033363Y2118920D02*
X13041075D01*
X13026234Y2126049D02*
X13033363Y2118920D01*
X12978905D02*
X12986617D01*
X12959990Y2100005D02*
X12978905Y2118920D01*
X13041075D02*
X13059990Y2100005D01*
X13041075Y1981090D02*
X13059990Y2000005D01*
X12978905Y1981090D02*
X12986617D01*
X12993745Y1973960D01*
X12959990Y2000005D02*
X12978905Y1981090D01*
X13033363D02*
X13041075D01*
X13414914Y1279266D02*
X13433755Y1260426D01*
X13400000Y1302000D02*
X13414914Y1287085D01*
X13400000Y1302000D02*
Y1408000D01*
X13466245Y1260426D02*
X13485085Y1279266D01*
Y1287085D01*
X13500000Y1302000D01*
X13414914Y1279266D02*
Y1287085D01*
X13500000Y1302000D02*
Y1408000D01*
X11783755Y1723755D02*
X11958755Y1898755D01*
Y2373956D01*
X11816245Y1710297D02*
X11991245Y1885297D01*
Y2373956D01*
X13517490Y3597510D02*
X13833755Y3281246D01*
X13530948Y3630000D02*
X13866245Y3294703D01*
X13496542Y3837510D02*
X13983755Y3350298D01*
X13510001Y3870000D02*
X14016245Y3363755D01*
X12237510Y3837510D02*
X13496542D01*
X12224052Y3870000D02*
X13510001D01*
X11894052Y4100000D02*
X13607500D01*
X13594041Y4067510D02*
X14133755Y3527798D01*
X11391253Y3551253D02*
X11907510Y4067510D01*
X13594041D01*
X11358763Y3564710D02*
X11894052Y4100000D01*
X13607500D02*
X14166245Y3541255D01*
X11358763Y2526035D02*
Y3564710D01*
X13675000Y3070000D02*
X13678516Y3073515D01*
Y3128041D01*
X13683755Y3133281D01*
Y3165518D01*
X13716245Y3133281D02*
X13721484Y3128041D01*
X13716245Y3133281D02*
Y3178975D01*
X13721484Y3073515D02*
Y3128041D01*
Y3073515D02*
X13725000Y3070000D01*
X12323374Y2118915D02*
X12331085D01*
X12276626D02*
X12283755Y2126044D01*
X12316245D02*
X12323374Y2118915D01*
X12250000Y2100000D02*
X12268915Y2118915D01*
X12276626D01*
X12331085D02*
X12350000Y2100000D01*
X13866245Y3133281D02*
Y3294703D01*
X13833755Y3133281D02*
Y3281246D01*
X13825000Y3070000D02*
X13828516Y3073515D01*
Y3128041D02*
X13833755Y3133281D01*
X13828516Y3073515D02*
Y3128041D01*
X13866245Y3133281D02*
X13871484Y3128041D01*
Y3073515D02*
Y3128041D01*
Y3073515D02*
X13875000Y3069999D01*
X11951626Y2518915D02*
X11958755Y2526044D01*
X11991245D02*
X11998374Y2518915D01*
X11943915D02*
X11951626D01*
X11925000Y2500000D02*
X11943915Y2518915D01*
X12006085D02*
X12025000Y2500000D01*
X11998374Y2518915D02*
X12006085D01*
X13983755Y3133282D02*
Y3350298D01*
X14016245Y3133281D02*
Y3363755D01*
X13978516Y3073515D02*
Y3128041D01*
X14016245Y3133281D02*
X14021484Y3128041D01*
Y3073515D02*
X14025000Y3070000D01*
X13978516Y3128041D02*
X13983755Y3133282D01*
X14021484Y3073515D02*
Y3128041D01*
X13975000Y3070000D02*
X13978516Y3073515D01*
X11668915Y2118915D02*
X11676626D01*
X11683755Y2126044D01*
X11650000Y2100000D02*
X11668915Y2118915D01*
X11731085D02*
X11750000Y2100000D01*
X11723374Y2118915D02*
X11731085D01*
X11716245Y2126044D02*
X11723374Y2118915D01*
X14166245Y3133281D02*
Y3541255D01*
X14133755Y3133282D02*
Y3527798D01*
X14128516Y3073515D02*
Y3128041D01*
X14125000Y3070000D02*
X14128516Y3073515D01*
X14171484D02*
Y3128041D01*
X14128516D02*
X14133755Y3133282D01*
X14171484Y3073515D02*
X14175000Y3070000D01*
X14166245Y3133281D02*
X14171484Y3128041D01*
X11406085Y2518915D02*
X11425000Y2500000D01*
X11398382Y2518915D02*
X11406085D01*
X11325020Y2499990D02*
X11343935Y2518905D01*
X11351634D01*
X11358763Y2526035D01*
X11391253Y2526044D02*
X11398382Y2518915D01*
X11633755Y1743458D02*
X11683755Y1793458D01*
X12038745Y1722500D02*
X12094264D01*
X11966245Y1650000D02*
X12038745Y1722500D01*
X12080806Y1754990D02*
X12283755Y1957939D01*
X12025287Y1754990D02*
X12080806D01*
X11933755Y1663458D02*
X12025287Y1754990D01*
X12094264Y1722500D02*
X12316245Y1944481D01*
X12331085Y1981085D02*
X12350000Y2000000D01*
X12323374Y1981085D02*
X12331085D01*
X12316245Y1973956D02*
X12323374Y1981085D01*
X12316245Y1944481D02*
Y1973956D01*
X12250000Y2000000D02*
X12268915Y1981085D01*
X12276626D01*
X12283755Y1973956D01*
Y1957939D02*
Y1973956D01*
X12006085Y2381085D02*
X12025000Y2400000D01*
X11998374Y2381085D02*
X12006085D01*
X11991245Y2373956D02*
X11998374Y2381085D01*
X11951626D02*
X11958755Y2373956D01*
X11943915Y2381085D02*
X11951626D01*
X11925000Y2400000D02*
X11943915Y2381085D01*
X11683755Y1793458D02*
Y1973956D01*
X11716245Y1780000D02*
Y1973956D01*
X11666245Y1730000D02*
X11716245Y1780000D01*
X11731085Y1981085D02*
X11750000Y2000000D01*
X11723374Y1981085D02*
X11731085D01*
X11716245Y1973956D02*
X11723374Y1981085D01*
X11676626D02*
X11683755Y1973956D01*
X11668915Y1981085D02*
X11676626D01*
X11650000Y2000000D02*
X11668915Y1981085D01*
X11398386Y2381085D02*
X11406085D01*
X11391257Y2373956D02*
X11398386Y2381085D01*
X11357984Y2129904D02*
X11358767Y2130687D01*
X11343935Y2381076D02*
X11351637D01*
X11358767Y2130687D02*
Y2373946D01*
X11351637Y2381076D02*
X11358767Y2373946D01*
X11325020Y2399990D02*
X11343935Y2381076D01*
X11406085Y2381085D02*
X11425000Y2400000D01*
X3385298Y3856245D02*
X3461542Y3932490D01*
X4107510D01*
X3398755Y3823755D02*
X3475000Y3900000D01*
X4094053D01*
X3040000Y4120000D02*
X3063755Y4096245D01*
X3040000Y4040000D02*
X3063755Y4063755D01*
X2660000Y3800000D02*
X2683755Y3823755D01*
X2660000Y3880000D02*
X2683755Y3856245D01*
X3586542Y3757490D02*
X4062511D01*
X3458755Y3583755D02*
X3600000Y3725000D01*
X4062511Y3757490D02*
X4361245Y3458755D01*
X3445297Y3616245D02*
X3586542Y3757490D01*
X4049053Y3725000D02*
X4328755Y3445298D01*
X3600000Y3725000D02*
X4049053D01*
X2280000Y3560000D02*
X2303755Y3583755D01*
X2280000Y3640000D02*
X2303755Y3616245D01*
X3530297Y3376245D02*
X3686543Y3532490D01*
X3700000Y3500000D02*
X4034053D01*
X3543755Y3343755D02*
X3700000Y3500000D01*
X1923756Y3376245D02*
X3530297D01*
X3686543Y3532490D02*
X4047510D01*
X1923756Y3343755D02*
X3543755D01*
X4047510Y3532490D02*
X4261245Y3318755D01*
X4034053Y3500000D02*
X4228755Y3305298D01*
X1900001Y3320000D02*
X1923756Y3343755D01*
X1900001Y3400000D02*
X1923756Y3376245D01*
X1483755Y1283458D02*
X2353755Y2153457D01*
Y2446245D01*
X2330000Y2470000D02*
X2353755Y2446245D01*
X2386245D02*
X2410000Y2470000D01*
X1516245Y1270000D02*
X2386245Y2140000D01*
Y2446245D01*
X1333755Y1377213D02*
X1873755Y1917213D01*
X1333755Y1221048D02*
Y1377213D01*
X1906245Y2066245D02*
X1930000Y2090000D01*
X1906245Y1903755D02*
Y2066245D01*
X1366245Y1363755D02*
X1906245Y1903755D01*
X1366245Y1234506D02*
Y1363755D01*
X1850000Y2090000D02*
X1873755Y2066245D01*
Y1917213D02*
Y2066245D01*
X1216245Y1718755D02*
X1426245Y1928755D01*
X1183755Y1732213D02*
X1393755Y1942213D01*
X1426245Y2446245D02*
X1450000Y2470000D01*
X1426245Y1928755D02*
Y2446245D01*
X1216245Y1326245D02*
Y1718755D01*
X1370000Y2470000D02*
X1393755Y2446245D01*
Y1942213D02*
Y2446245D01*
X1183755Y1306245D02*
Y1732213D01*
X946245Y1726245D02*
Y2066245D01*
Y1726245D02*
X1066245Y1606245D01*
X946245Y2066245D02*
X970000Y2090000D01*
X890000D02*
X913755Y2066245D01*
Y1712787D02*
Y2066245D01*
Y1712787D02*
X1033755Y1592787D01*
X5683755Y1192114D02*
Y1656245D01*
X5716245Y1192114D02*
Y1669703D01*
X4811245Y2574702D02*
X5716245Y1669703D01*
X5650000Y1023500D02*
X5653515Y1027015D01*
Y1166541D01*
X5671959Y1184985D02*
X5676626D01*
X5683755Y1192114D01*
X5653515Y1166541D02*
X5671959Y1184985D01*
X5746485Y1027015D02*
X5750000Y1023500D01*
X5728041Y1184985D02*
X5746485Y1166541D01*
X5723374Y1184985D02*
X5728041D01*
X5746485Y1027015D02*
Y1166541D01*
X5716245Y1192114D02*
X5723374Y1184985D01*
X5566245Y1379705D02*
Y1549703D01*
X5533755Y1366248D02*
Y1536245D01*
X5500000Y1023500D02*
X5503515Y1027015D01*
Y1166541D02*
X5521959Y1184985D01*
X5503515Y1027015D02*
Y1166541D01*
X5526626Y1184985D02*
X5533755Y1192114D01*
X5533755Y1366248D02*
X5533755Y1366247D01*
Y1192114D02*
Y1366247D01*
X5596485Y1027015D02*
X5600000Y1023500D01*
X5596485Y1027015D02*
Y1166541D01*
X5578041Y1184985D02*
X5596485Y1166541D01*
X5573374Y1184985D02*
X5578041D01*
X5566245Y1192114D02*
X5573374Y1184985D01*
X5566245Y1192114D02*
Y1379705D01*
X5521959Y1184985D02*
X5526626D01*
X5566245Y1379705D02*
X5566245Y1379705D01*
X5416245Y1294706D02*
Y1399703D01*
X5383755Y1281248D02*
Y1386245D01*
X5353515Y1166541D02*
X5371959Y1184985D01*
X5376626D02*
X5383755Y1192114D01*
X5383755Y1281248D02*
X5383755Y1281248D01*
X5371959Y1184985D02*
X5376626D01*
X5446485Y1027015D02*
X5450000Y1023500D01*
X5383755Y1192114D02*
Y1281248D01*
X5353515Y1027015D02*
Y1166541D01*
X5350000Y1023500D02*
X5353515Y1027015D01*
X5446485Y1027015D02*
Y1166541D01*
X5423374Y1184985D02*
X5428041D01*
X5416245Y1192114D02*
X5423374Y1184985D01*
X5416245Y1192114D02*
Y1294705D01*
X5416245Y1294706D02*
X5416245Y1294705D01*
X5428041Y1184985D02*
X5446485Y1166541D01*
X5221959Y1184985D02*
X5226626D01*
X5233755Y1192114D01*
X5266245D02*
X5273374Y1184985D01*
X5203515Y1027015D02*
Y1166541D01*
X5221959Y1184985D01*
X5200000Y1023500D02*
X5203515Y1027015D01*
X5296485Y1027015D02*
X5300000Y1023500D01*
X5296485Y1027015D02*
Y1166541D01*
X5278042Y1184985D02*
X5296485Y1166541D01*
X5273374Y1184985D02*
X5278042D01*
X3316245Y1192114D02*
Y1536245D01*
X4161245Y2381245D02*
Y2771245D01*
X3283755Y1192114D02*
Y1549703D01*
X4128755Y2394703D02*
Y2771245D01*
X3133755Y1679703D02*
X4028755Y2574703D01*
X3166245Y1666245D02*
X4061245Y2561245D01*
X3166245Y1418738D02*
Y1666245D01*
X3133755Y1405280D02*
Y1679703D01*
X3133755Y1192114D02*
Y1405280D01*
X3166245Y1418738D02*
X3166245Y1418737D01*
Y1192114D02*
Y1418737D01*
X3133755Y1405280D02*
X3133755Y1405280D01*
D11*
X10910000Y3955000D02*
D03*
Y3665000D02*
D03*
D12*
X14550000Y3535000D02*
D03*
X14450000D02*
D03*
X4580000Y1370000D02*
D03*
X4480000D02*
D03*
X560000Y1390000D02*
D03*
X660000D02*
D03*
X860000D02*
D03*
X760000D02*
D03*
X2650000Y1380000D02*
D03*
X2550000D02*
D03*
X15300000Y1750000D02*
D03*
X15400000D02*
D03*
X10927499Y1950000D02*
D03*
X11027499D02*
D03*
X10927499Y1850000D02*
D03*
X11027499D02*
D03*
X13350000Y1740000D02*
D03*
X13450000D02*
D03*
X11027499Y1750000D02*
D03*
X10927499D02*
D03*
X14350000Y3535000D02*
D03*
X14250000D02*
D03*
D13*
X6190000Y3230000D02*
D03*
Y3380000D02*
D03*
D14*
X14555009Y3099995D02*
D03*
Y2999995D02*
D03*
X13250011Y2699995D02*
D03*
Y2799995D02*
D03*
X12959990Y2100005D02*
D03*
Y2000005D02*
D03*
X13059990Y2100005D02*
D03*
Y2000005D02*
D03*
X12350000Y2100000D02*
D03*
Y2000000D02*
D03*
X12250000Y2100000D02*
D03*
Y2000000D02*
D03*
X12025000Y2500000D02*
D03*
Y2400000D02*
D03*
X11925000Y2500000D02*
D03*
Y2400000D02*
D03*
X11750000Y2100000D02*
D03*
Y2000000D02*
D03*
X11650000Y2100000D02*
D03*
Y2000000D02*
D03*
X11425000Y2500000D02*
D03*
Y2400000D02*
D03*
X11325020Y2499990D02*
D03*
Y2399990D02*
D03*
D15*
X7350000Y3600000D02*
D03*
Y3240000D02*
D03*
D16*
X6456400Y3185000D02*
D03*
X6913600D02*
D03*
D17*
X6685000Y3810000D02*
D03*
D18*
X6450000Y2823500D02*
D03*
Y2496500D02*
D03*
D19*
X14224998Y3070000D02*
D03*
X14175000D02*
D03*
X14125000D02*
D03*
X14075000D02*
D03*
X14025000D02*
D03*
X13975000D02*
D03*
X13925000Y3069999D02*
D03*
X13875000D02*
D03*
X13825000Y3070000D02*
D03*
X13775000D02*
D03*
X13725000D02*
D03*
X13675000D02*
D03*
X13625000D02*
D03*
X13575000D02*
D03*
Y2280000D02*
D03*
X13625000D02*
D03*
X13675000D02*
D03*
X13725000D02*
D03*
X13775000D02*
D03*
X13825000D02*
D03*
X13875000Y2280000D02*
D03*
X13925000D02*
D03*
X13975000Y2280000D02*
D03*
X14025000D02*
D03*
X14075000D02*
D03*
X14125000D02*
D03*
X14175000D02*
D03*
X14224998D02*
D03*
D20*
X13505000Y3000000D02*
D03*
Y2950000D02*
D03*
Y2900000D02*
D03*
Y2850000D02*
D03*
Y2800000D02*
D03*
Y2750000D02*
D03*
X13505000Y2700000D02*
D03*
Y2650000D02*
D03*
X13505000Y2600000D02*
D03*
Y2550000D02*
D03*
Y2500000D02*
D03*
Y2450000D02*
D03*
Y2400000D02*
D03*
Y2350000D02*
D03*
X14295000D02*
D03*
Y2400000D02*
D03*
Y2450000D02*
D03*
Y2500000D02*
D03*
Y2550000D02*
D03*
Y2600000D02*
D03*
X14295000Y2650000D02*
D03*
Y2700000D02*
D03*
X14295000Y2750000D02*
D03*
Y2800000D02*
D03*
Y2850000D02*
D03*
Y2900000D02*
D03*
Y2950000D02*
D03*
Y3000000D02*
D03*
D21*
X13900000Y2675000D02*
D03*
D22*
X4820000Y3140000D02*
D03*
X4770000D02*
D03*
X4720000D02*
D03*
X4670000D02*
D03*
X4620000D02*
D03*
X4570000D02*
D03*
X4520000D02*
D03*
X4470000D02*
D03*
X4420000D02*
D03*
X4370000D02*
D03*
X4320000D02*
D03*
X4270000D02*
D03*
X4220000D02*
D03*
X4170000D02*
D03*
X4120000D02*
D03*
X4070000D02*
D03*
X4020000D02*
D03*
Y2780000D02*
D03*
X4070000D02*
D03*
X4120000D02*
D03*
X4170000D02*
D03*
X4220000D02*
D03*
X4270000D02*
D03*
X4320000D02*
D03*
X4370000D02*
D03*
X4420000D02*
D03*
X4470000D02*
D03*
X4520000D02*
D03*
X4570000D02*
D03*
X4620000D02*
D03*
X4670000D02*
D03*
X4720000D02*
D03*
X4770000D02*
D03*
X4820000D02*
D03*
D23*
X3975000Y3035000D02*
D03*
Y2985000D02*
D03*
Y2935000D02*
D03*
Y2885000D02*
D03*
X4865000D02*
D03*
Y2935000D02*
D03*
Y2985000D02*
D03*
Y3035000D02*
D03*
D24*
X4420000Y2960000D02*
D03*
D25*
X8580000Y200000D02*
D03*
X8820000D02*
D03*
X9700000D02*
D03*
X9940000D02*
D03*
D26*
X8300000D02*
D03*
X9100000D02*
D03*
X9420000D02*
D03*
X10220000D02*
D03*
D27*
X8570000Y467500D02*
D03*
X8830000D02*
D03*
X8635000D02*
D03*
X8700000D02*
D03*
X8765000D02*
D03*
X9690000D02*
D03*
X9950000D02*
D03*
X9755000D02*
D03*
X9820000D02*
D03*
X9885000D02*
D03*
D28*
X9710000Y3425000D02*
D03*
Y3675000D02*
D03*
Y3925000D02*
D03*
X10360000Y3425000D02*
D03*
Y3675000D02*
D03*
Y3925000D02*
D03*
X8685000Y3425000D02*
D03*
Y3675000D02*
D03*
Y3925000D02*
D03*
X9335000Y3425000D02*
D03*
Y3675000D02*
D03*
Y3925000D02*
D03*
D29*
X2750000Y1023500D02*
D03*
X2800000D02*
D03*
X2850000D02*
D03*
X2900000D02*
D03*
X2950000D02*
D03*
X3000000D02*
D03*
X3050000D02*
D03*
X3100000D02*
D03*
X3150000D02*
D03*
X3200000D02*
D03*
X3250000D02*
D03*
X3300000D02*
D03*
X3350000D02*
D03*
X3400000D02*
D03*
X3450000D02*
D03*
X3500000D02*
D03*
X3550000D02*
D03*
X3600000D02*
D03*
X3650000D02*
D03*
X4850000D02*
D03*
X4900000D02*
D03*
X4950000D02*
D03*
X5000000D02*
D03*
X5050000D02*
D03*
X5100000D02*
D03*
X5150000D02*
D03*
X5200000D02*
D03*
X5250000D02*
D03*
X5300000D02*
D03*
X5350000D02*
D03*
X5400000D02*
D03*
X5450000D02*
D03*
X5500000D02*
D03*
X5550000D02*
D03*
X5600000D02*
D03*
X5650000D02*
D03*
X5700000D02*
D03*
X5750000D02*
D03*
X650000D02*
D03*
X700000D02*
D03*
X750000D02*
D03*
X800000D02*
D03*
X850000D02*
D03*
X900000D02*
D03*
X950000D02*
D03*
X1000000D02*
D03*
X1050000D02*
D03*
X1100000D02*
D03*
X1150000D02*
D03*
X1200000D02*
D03*
X1250000D02*
D03*
X1300000D02*
D03*
X1350000D02*
D03*
X1400000D02*
D03*
X1450000D02*
D03*
X1500000D02*
D03*
X1550000D02*
D03*
D30*
X12000000Y1408000D02*
D03*
X11950000D02*
D03*
X11900000D02*
D03*
X11850000D02*
D03*
X11800000D02*
D03*
X11750000D02*
D03*
X11700000D02*
D03*
X11650000D02*
D03*
X11600000D02*
D03*
X11550000D02*
D03*
X11500000D02*
D03*
X11450000D02*
D03*
X11400000D02*
D03*
X11350000D02*
D03*
X11300000D02*
D03*
X11250000D02*
D03*
X11200000D02*
D03*
X11150000D02*
D03*
X11100000D02*
D03*
X11050000D02*
D03*
X15450000D02*
D03*
X15499998D02*
D03*
X15550000D02*
D03*
X15600000D02*
D03*
X15649998D02*
D03*
X15700000D02*
D03*
X15749998D02*
D03*
X15800000D02*
D03*
X15850000D02*
D03*
X15899998D02*
D03*
X15950000D02*
D03*
X15999998D02*
D03*
X16050000D02*
D03*
X16100000D02*
D03*
X16149998D02*
D03*
X16200000D02*
D03*
X16250000D02*
D03*
X16300000D02*
D03*
X16350000D02*
D03*
X16399998D02*
D03*
X13250000D02*
D03*
X13300000D02*
D03*
X13350000D02*
D03*
X13400000D02*
D03*
X13450000D02*
D03*
X13500000D02*
D03*
X13550000D02*
D03*
X13600000D02*
D03*
X13650000D02*
D03*
X13700000D02*
D03*
X13750000D02*
D03*
X13800000D02*
D03*
X13850000D02*
D03*
X13900000D02*
D03*
X13950000D02*
D03*
X14000000D02*
D03*
X14050000D02*
D03*
X14100000D02*
D03*
X14150000D02*
D03*
X14200000D02*
D03*
D31*
X4950005Y3340010D02*
D03*
X4850005D02*
D03*
X15414995Y2099990D02*
D03*
X15314995D02*
D03*
X15414999Y2000000D02*
D03*
X15314999D02*
D03*
D32*
X11170000Y3770000D02*
D03*
Y3670000D02*
D03*
D33*
X340000Y3170000D02*
X1560000Y4390000D01*
X340000Y3130000D02*
Y3170000D01*
X1560000Y4390000D02*
X4190000D01*
X439400Y3155101D02*
X1594299Y4310000D01*
X420000Y3135304D02*
X439400Y3154704D01*
X420000Y3130000D02*
Y3135304D01*
X439400Y3154704D02*
Y3155101D01*
X4999850Y2744449D02*
Y2744449D01*
X4894800Y2849499D02*
X4999850Y2744449D01*
X4894800Y2849499D02*
Y2882700D01*
X4999850Y2744449D02*
X5120548Y2623750D01*
X4892500Y2885000D02*
X4894800Y2882700D01*
X4865000Y2885000D02*
X4892500D01*
X5120548Y2623750D02*
X5126250D01*
X5130000Y2620000D01*
X4970121Y2935000D02*
X5050000Y2855121D01*
X4865000Y2935000D02*
X4970121D01*
X5050000Y2774299D02*
Y2855121D01*
X5105296Y2719400D02*
X5124696Y2700000D01*
X5104899Y2719400D02*
X5105296D01*
X5050000Y2774299D02*
X5104899Y2719400D01*
X5124696Y2700000D02*
X5130000D01*
X2870000Y1280000D02*
Y1360000D01*
Y1280000D02*
X2950000Y1200000D01*
Y1023500D02*
Y1200000D01*
X2966250Y1456250D02*
X2970000Y1460000D01*
X2846250Y1456250D02*
X2966250D01*
X2890000Y1380000D02*
X2950000D01*
X2870000Y1360000D02*
X2890000Y1380000D01*
X2780000Y1390000D02*
X2846250Y1456250D01*
X2780000Y1290000D02*
Y1390000D01*
Y1290000D02*
X2897700Y1172300D01*
X2537700Y1010200D02*
Y1367700D01*
X2475000Y947500D02*
X2537700Y1010200D01*
Y1367700D02*
X2550000Y1380000D01*
X2650000Y1494696D02*
X2660000Y1504696D01*
Y1510000D01*
X2650000Y1380000D02*
Y1494696D01*
Y1238500D02*
Y1380000D01*
Y1238500D02*
X2747700Y1140800D01*
Y1025800D02*
Y1140800D01*
X3050000Y1023500D02*
Y2056674D01*
X2897700Y1025800D02*
Y1172300D01*
Y1025800D02*
X2900000Y1023500D01*
X5260600Y2969400D02*
X5305296D01*
X5195000Y3035000D02*
X5260600Y2969400D01*
X4865000Y3035000D02*
X5195000D01*
X5324696Y2950000D02*
X5330000D01*
X5305296Y2969400D02*
X5324696Y2950000D01*
X5260000Y2870000D02*
X5330000D01*
X5145000Y2985000D02*
X5260000Y2870000D01*
X4865000Y2985000D02*
X5145000D01*
X4470000Y1710000D02*
X4740000Y1440000D01*
X4930000D01*
X4580000Y1370000D02*
Y1440000D01*
X4698250Y1246750D02*
X4741750D01*
X4850000Y1023500D02*
Y1138500D01*
X4741750Y1246750D02*
X4850000Y1138500D01*
X4580000Y1365000D02*
X4698250Y1246750D01*
X4580000Y1365000D02*
Y1370000D01*
X4930000Y1440000D02*
X5150000Y1220000D01*
Y1023500D02*
Y1220000D01*
X4997700Y1025800D02*
X5000000Y1023500D01*
X5047700Y1025800D02*
Y1189434D01*
X5000000Y1023500D02*
Y1180000D01*
X4986734Y1250400D02*
X5047700Y1189434D01*
X4970000Y1210000D02*
X5000000Y1180000D01*
X4870000Y1330000D02*
X4873750Y1326250D01*
Y1320548D02*
X4943898Y1250400D01*
X4873750Y1320548D02*
Y1326250D01*
X4943898Y1250400D02*
X4986734D01*
X5047700Y1025800D02*
X5050000Y1023500D01*
X4790000Y1324696D02*
X4809400Y1305296D01*
Y1304899D02*
Y1305296D01*
X4904299Y1210000D02*
X4970000D01*
X4790000Y1324696D02*
Y1330000D01*
X4809400Y1304899D02*
X4904299Y1210000D01*
X4333750Y1686250D02*
X4580000Y1440000D01*
X4330000Y1710000D02*
X4333750Y1706250D01*
Y1686250D02*
Y1706250D01*
X5147700Y1025800D02*
X5150000Y1023500D01*
X1399327Y690000D02*
X1549327D01*
X1352300Y887026D02*
X1500000Y739326D01*
X1549327Y690000D01*
X1500000Y739326D02*
Y1023500D01*
X1502300Y887027D02*
Y1021200D01*
X1500000Y1023500D02*
X1502300Y1021200D01*
X1567500Y690000D02*
X1825000Y947500D01*
X1352300Y887026D02*
Y1021200D01*
X1549327Y690000D02*
X1567500D01*
X1350000Y1023500D02*
X1352300Y1021200D01*
X1249327Y690000D02*
X1399327D01*
X1202300Y887026D02*
X1399327Y690000D01*
X1202300Y887026D02*
Y1021200D01*
X1200000Y1023500D02*
X1202300Y1021200D01*
X949327Y690000D02*
X1249327D01*
X1052300Y887026D02*
X1249327Y690000D01*
X1052300Y887026D02*
Y1021200D01*
X1050000Y1023500D02*
X1052300Y1021200D01*
X752300Y887027D02*
X949327Y690000D01*
X752300Y887027D02*
Y1021200D01*
X750000Y1023500D02*
X752300Y1021200D01*
X2745121Y750000D02*
X2850000Y854879D01*
Y1023500D01*
X2672500Y750000D02*
X2745121D01*
X2475000Y947500D02*
X2672500Y750000D01*
X3339999Y2930000D02*
X3617751D01*
X3672751Y2985000D02*
X3975000D01*
X3617751Y2930000D02*
X3672751Y2985000D01*
X3345304Y3010000D02*
X3370304Y3035000D01*
X3975000D01*
X3340000Y3010000D02*
X3345304D01*
X700000Y470000D02*
Y1023500D01*
Y470000D02*
X1080000Y90000D01*
X6230000D01*
X6360000Y220000D01*
Y1260000D01*
X6450000Y1350000D02*
Y2140000D01*
X6360000Y1260000D02*
X6450000Y1350000D01*
X603750Y1514349D02*
X659600Y1458499D01*
X603750Y1514349D02*
Y1546250D01*
X600000Y1550000D02*
X603750Y1546250D01*
X750000Y1650000D02*
X860000Y1540000D01*
Y1390000D02*
Y1540000D01*
X500000Y1650000D02*
X750000D01*
X450000Y1600000D02*
X500000Y1650000D01*
X450000Y1450000D02*
Y1600000D01*
Y1450000D02*
X500000Y1400000D01*
X550000D01*
X560000Y1390000D01*
X700000Y1500000D02*
Y1500000D01*
X756779Y1393221D02*
Y1443221D01*
X700000Y1500000D02*
X756779Y1443221D01*
Y1393221D02*
X760000Y1390000D01*
X683750Y1516249D02*
X700000Y1500000D01*
X683750Y1516249D02*
Y1546250D01*
X659600Y1390400D02*
Y1458499D01*
Y1390400D02*
X660000Y1390000D01*
X680000Y1550000D02*
X683750Y1546250D01*
X760000Y1301750D02*
Y1395000D01*
X4190000Y4390000D02*
X4720000Y3860000D01*
X4140000Y4310000D02*
X4670000Y3780000D01*
X1594299Y4310000D02*
X4140000D01*
X4720000Y3140000D02*
Y3860000D01*
X4770000Y3490000D02*
X5360000Y4080000D01*
X4770000Y3140000D02*
Y3490000D01*
X4670000Y3140000D02*
Y3780000D01*
X660000Y1340000D02*
X800000Y1200000D01*
X760000Y1301750D02*
X850000Y1211750D01*
X800000Y1023500D02*
Y1200000D01*
X850000Y1023500D02*
Y1211750D01*
X13900000Y2675000D02*
X13925000Y2700000D01*
X13775000Y2800000D02*
X13900000Y2675000D01*
X13925000Y2650000D01*
X560000Y1385000D02*
X619600Y1325400D01*
Y1273300D02*
Y1325400D01*
Y1273300D02*
X700000Y1192900D01*
Y1023500D02*
Y1192900D01*
X560000Y1385000D02*
Y1390000D01*
X660000Y1340000D02*
Y1390000D01*
X4822300Y3142300D02*
Y3216996D01*
X4850000Y3244696D01*
X4820000Y3140000D02*
X4822300Y3142300D01*
X4850000Y3244696D02*
Y3250000D01*
X4850002Y3250003D01*
X370000Y1418500D02*
X650000Y1138500D01*
X370000Y2330000D02*
X1110000Y3070000D01*
X370000Y1418500D02*
Y2330000D01*
X2590000Y2960000D02*
X2760000Y3130000D01*
X3590000D02*
X3800000Y3340000D01*
X2760000Y3130000D02*
X3590000D01*
X4120000Y3140000D02*
Y3230000D01*
Y3140000D02*
X4120000Y3140000D01*
X4010000Y3340000D02*
X4120000Y3230000D01*
X3940000Y3260000D02*
X3943750Y3256250D01*
X4000424D01*
X4067700Y3142300D02*
Y3188974D01*
X4000424Y3256250D02*
X4067700Y3188974D01*
X3800000Y3340000D02*
X4010000D01*
X1210000Y2960000D02*
X2590000D01*
X660000Y2410000D02*
X1210000Y2960000D01*
X660000Y1840000D02*
Y2410000D01*
X950000Y1023500D02*
Y1550000D01*
X660000Y1840000D02*
X950000Y1550000D01*
X3610000Y3240000D02*
X3780000Y3410000D01*
X4010000D02*
X4170000Y3250000D01*
X3780000Y3410000D02*
X4010000D01*
X4170000Y3140000D02*
Y3250000D01*
X2680000Y3240000D02*
X3610000D01*
X2510000Y3070000D02*
X2680000Y3240000D01*
X1110000Y3070000D02*
X2510000D01*
X650000Y1023500D02*
Y1138500D01*
X4870000Y4080000D02*
X5360000D01*
X4870000Y4210000D02*
X5107652D01*
X5177652Y4280000D01*
X3945200Y2882700D02*
X3947500Y2885000D01*
X3945200Y2705200D02*
Y2882700D01*
X3820000Y2580000D02*
X3945200Y2705200D01*
X3947500Y2885000D02*
X3975000D01*
X3926026Y2932700D02*
X3972700D01*
X3050000Y2056674D02*
X3926026Y2932700D01*
X3972700D02*
X3975000Y2935000D01*
X4772500Y750000D02*
X4905121D01*
X4575000Y947500D02*
X4772500Y750000D01*
X5110674D02*
X5247700Y887027D01*
X4905121Y750000D02*
X4950000Y794879D01*
X4905121Y750000D02*
X5110674D01*
X5700000Y831042D02*
Y1023500D01*
Y831042D02*
X5790521Y740521D01*
X5697637D02*
X5790521D01*
X5548807D02*
X5697637D01*
X5402300Y887028D02*
X5548807Y740521D01*
X5402300Y887028D02*
Y1021200D01*
X5400000Y1023500D02*
X5402300Y1021200D01*
X5552300Y885858D02*
X5697637Y740521D01*
X5552300Y885858D02*
Y1021200D01*
X5550000Y1023500D02*
X5552300Y1021200D01*
X5790521Y740521D02*
X5997500Y947500D01*
X6025000D01*
X5247700Y887027D02*
Y1021200D01*
X5250000Y1023500D01*
X4950000Y794879D02*
Y1023500D01*
X4950003Y3250003D02*
Y3340008D01*
X4950000Y3250000D02*
X4950003Y3250003D01*
Y3340008D02*
X4950005Y3340010D01*
X9695000Y3675000D02*
X9710000D01*
X9570000Y3800000D02*
X9695000Y3675000D01*
X8350000Y3800000D02*
X9570000D01*
X5177652Y4280000D02*
X7870000D01*
X8350000Y3800000D01*
X5360000Y4080000D02*
X5460000Y4180000D01*
X7840000D01*
X4067700Y3142300D02*
X4070000Y3140000D01*
X3875304Y3160000D02*
X3895304Y3140000D01*
X4020000D01*
X3870000Y3160000D02*
X3875304D01*
X8345000Y3675000D02*
X8685000D01*
X7840000Y4180000D02*
X8345000Y3675000D01*
X9335000D02*
X9350000D01*
X8685000D02*
X9335000D01*
X11070000Y4080000D02*
X11170000Y3980000D01*
Y3770000D02*
Y3980000D01*
X10945000Y3955000D02*
X11070000Y4080000D01*
X10910000Y3955000D02*
X10945000D01*
X12430000Y2370000D02*
X12600000Y2200000D01*
X12430000Y2370000D02*
Y2840000D01*
X12600000Y2000000D02*
Y2200000D01*
X12650000Y3060000D02*
X12910001D01*
X12430000Y2840000D02*
X12650000Y3060000D01*
X12880000Y3000000D02*
X12960001Y2920000D01*
X13270000D01*
X12660000Y3000000D02*
X12880000D01*
X12480000Y2820000D02*
X12660000Y3000000D01*
X12480000Y2390000D02*
Y2820000D01*
Y2390000D02*
X12690000Y2180000D01*
Y1817652D02*
Y2180000D01*
X12970000Y3000000D02*
X13112347D01*
X12910001Y3060000D02*
X12970000Y3000000D01*
X13112347D02*
X13192348Y3080000D01*
X12630000Y1460000D02*
Y1757652D01*
X12690000Y1817652D01*
X13192348Y3080000D02*
X13270000D01*
X12430000Y1830000D02*
X12600000Y2000000D01*
X11027499Y1745000D02*
X11032499Y1750000D01*
X10140000Y2810000D02*
X10605813Y3275813D01*
X10140000Y1150000D02*
Y2810000D01*
Y1150000D02*
X10560000Y730000D01*
X10605813Y3275813D02*
Y3424187D01*
X9350000Y3675000D02*
X9465000Y3560000D01*
X10470000D01*
X10605813Y3424187D01*
X10560000Y730000D02*
X14639999D01*
X14739999Y830000D01*
Y1710000D01*
X14295000Y2155000D02*
Y2350000D01*
Y2155000D02*
X14739999Y1710000D01*
X9523750Y4066250D02*
X9553750D01*
X9695000Y3925000D02*
X9710000D01*
X9553750Y4066250D02*
X9695000Y3925000D01*
X9520000Y4070000D02*
X9523750Y4066250D01*
X9350000Y3925000D02*
X9491249Y4066250D01*
X9516250D01*
X9520000Y4070000D01*
X9335000Y3925000D02*
X9350000D01*
X9710000D02*
X10360000D01*
X8685000D02*
X9335000D01*
X9710000Y3425000D02*
X10360000D01*
X9335000D02*
X9710000D01*
X8685000D02*
X9335000D01*
X7350000Y3240000D02*
X8485000D01*
X8670000Y3425000D01*
X14550000Y3750000D02*
X14550000Y3750000D01*
X14550000Y3535000D02*
Y3750000D01*
X14250000Y3535000D02*
Y3750000D01*
Y3535000D02*
X14250000Y3535000D01*
X14460001Y3360000D02*
X14689999D01*
X14870000Y3540000D01*
Y4120000D01*
X10640000Y4000000D02*
X10920000Y4280000D01*
X10640000Y3810000D02*
Y4000000D01*
X10505000Y3675000D02*
X10640000Y3810000D01*
X10360000Y3675000D02*
X10505000D01*
X9710000D02*
X10360000D01*
X10920000Y4280000D02*
X14710001D01*
X14870000Y4120000D01*
X14295000Y3194999D02*
X14460001Y3360000D01*
X14295000Y3000000D02*
Y3194999D01*
X14405000Y2950000D02*
X14455000Y3000000D01*
X14295000Y2950000D02*
X14405000D01*
X14455000Y2999997D02*
X14555013D01*
X14224998Y3314999D02*
X14350000Y3440000D01*
Y3535000D01*
X14224998Y3070000D02*
Y3314999D01*
X13395000Y3080000D02*
X13474998Y3000000D01*
X13505000D01*
X13270000Y3080000D02*
X13395000D01*
X13295303Y2900000D02*
X13505000D01*
X13275304Y2920000D02*
X13295303Y2900000D01*
X13270000Y2920000D02*
X13275304D01*
X13350151Y3000000D02*
X13400151Y2950000D01*
X13505000D01*
X13270000Y3000000D02*
X13350151D01*
X4850002Y3250003D02*
Y3340008D01*
X4850005Y3340010D01*
X9950000Y467500D02*
Y675000D01*
X8827500Y470000D02*
Y647500D01*
Y470000D02*
X8830000Y467500D01*
X8825000Y650000D02*
X8827500Y647500D01*
X14350000Y3535000D02*
X14450000D01*
X11120000Y2120000D02*
Y3355000D01*
X10910000Y3565000D02*
Y3665000D01*
Y3565000D02*
X11120000Y3355000D01*
Y2120000D02*
X11350000Y1890000D01*
X11170000Y2130000D02*
X11400000Y1900000D01*
X11170000Y2130000D02*
Y3670000D01*
X11350000Y1408000D02*
Y1890000D01*
X11400000Y1408000D02*
Y1900000D01*
X13851300Y1283526D02*
Y1406700D01*
X13986826Y1148000D02*
X14136826D01*
X13850000Y1408000D02*
X13851300Y1406700D01*
Y1283526D02*
X13986826Y1148000D01*
X14136826D02*
X14286826D01*
X14001300Y1283526D02*
X14136826Y1148000D01*
X14001300Y1283526D02*
Y1406700D01*
X14000000Y1408000D02*
X14001300Y1406700D01*
X14151300Y1283526D02*
Y1406700D01*
X14150000Y1408000D02*
X14151300Y1406700D01*
X14286826Y1148000D02*
X14474998D01*
X14151300Y1283526D02*
X14286826Y1148000D01*
X13355173Y940000D02*
X13698700Y1283526D01*
Y1406700D02*
X13700000Y1408000D01*
X13698700Y1283526D02*
Y1406700D01*
X13033000Y940000D02*
X13355173D01*
X12825000Y1148000D02*
X13033000Y940000D01*
X16186826Y1148000D02*
X16336826D01*
X16051300Y1283526D02*
X16186826Y1148000D01*
X16051300Y1283526D02*
Y1406700D01*
X16050000Y1408000D02*
X16051300Y1406700D01*
X16486826Y1148000D02*
X16674998D01*
X16336826D02*
X16486826D01*
X16200000Y1408000D02*
X16201300Y1406700D01*
Y1283526D02*
Y1406700D01*
Y1283526D02*
X16336826Y1148000D01*
X15763173D02*
X15898698Y1283526D01*
X15513173Y1148000D02*
X15763173D01*
X15898698Y1406700D02*
X15899998Y1408000D01*
X15898698Y1283526D02*
Y1406700D01*
X16350000Y1408000D02*
X16351300Y1406700D01*
Y1283526D02*
Y1406700D01*
Y1283526D02*
X16486826Y1148000D01*
X15648698Y1283526D02*
Y1406700D01*
X15025000Y1148000D02*
X15513173D01*
X15648698Y1283526D01*
Y1406700D02*
X15649998Y1408000D01*
X15350000Y1645304D02*
X15387700Y1683004D01*
Y1737700D02*
X15400000Y1750000D01*
X15387700Y1683004D02*
Y1737700D01*
X15350000Y1640000D02*
Y1645304D01*
X15025000Y1470000D02*
X15300000Y1745000D01*
X15025000Y1148000D02*
Y1470000D01*
X15300000Y1745000D02*
Y1750000D01*
X15400000Y1745000D02*
X15550000Y1595000D01*
X15400000Y1745000D02*
Y1750000D01*
X15550000Y1408000D02*
Y1595000D01*
X11032499Y1750000D02*
X11150000D01*
Y1408000D02*
Y1750000D01*
X13239999Y1740000D02*
X13350000D01*
X13450000D02*
X13560001D01*
X13450000Y1740000D02*
X13450000Y1740000D01*
X13450000Y1408000D02*
Y1740000D01*
X13450000Y1408000D02*
X13450000Y1408000D01*
X13350000D02*
Y1740000D01*
X13350000Y1408000D02*
X13350000Y1408000D01*
Y1740000D02*
X13350000Y1740000D01*
X11786826Y1148000D02*
X11936826D01*
X12086826D02*
X12275000D01*
X11936826D02*
X12086826D01*
X11800000Y1408000D02*
X11801300Y1406700D01*
Y1283526D02*
Y1406700D01*
Y1283526D02*
X11936826Y1148000D01*
X11950000Y1408000D02*
X11951300Y1406700D01*
Y1283526D02*
Y1406700D01*
Y1283526D02*
X12086826Y1148000D01*
X11651300Y1283526D02*
Y1406700D01*
X11650000Y1408000D02*
X11651300Y1406700D01*
Y1283526D02*
X11786826Y1148000D01*
X11113174D02*
X11363174D01*
X11498700Y1283526D01*
Y1406700D01*
X11500000Y1408000D01*
X10963174Y1148000D02*
X11113174D01*
X11248700Y1283526D01*
Y1406700D01*
X11250000Y1408000D01*
X11098700Y1283526D02*
Y1406700D01*
X11100000Y1408000D01*
X10963174Y1148000D02*
X11098700Y1283526D01*
X10625000Y1148000D02*
X10963174D01*
X10625000D02*
Y1815000D01*
X10760000Y1950000D02*
X10927499D01*
X10625000Y1815000D02*
X10760000Y1950000D01*
X11048700Y1515300D02*
X11050000Y1514000D01*
X10810000Y1750000D02*
X11044700Y1515300D01*
X10810000Y1750000D02*
Y1850000D01*
X11050000Y1408000D02*
Y1514000D01*
X11044700Y1515300D02*
X11048700D01*
X10927499Y1745000D02*
X11100000Y1572499D01*
X10927499Y1745000D02*
Y1750000D01*
X11100000Y1408000D02*
Y1572499D01*
X10810000Y1850000D02*
X10927499D01*
X11027499Y1745000D02*
Y1750000D01*
X14455002Y3099998D02*
X14555008D01*
X14555009Y3099995D01*
X14455000Y3100000D02*
X14455002Y3099998D01*
X13344691Y2699995D02*
X13354697Y2710000D01*
X13250011Y2699995D02*
X13344691D01*
X13354697Y2710000D02*
X13359999D01*
X13356250Y2793750D02*
X13360001Y2790000D01*
X13256255Y2793750D02*
X13356250D01*
X13250011Y2799995D02*
X13256255Y2793750D01*
X13375304Y2800000D02*
X13505000D01*
X13775000Y2550000D02*
X13900000Y2675000D01*
X13775000Y2280000D02*
Y2550000D01*
X13925000Y2280000D02*
Y2650000D01*
X14075000Y2280000D02*
Y2500000D01*
X13925000Y2650000D02*
X14075000Y2500000D01*
X14295000D01*
X13925000Y2650000D02*
X14295000D01*
X14025000Y2800000D02*
X14075000Y2850000D01*
X13925000Y2700000D02*
X14025000Y2800000D01*
X14295000D01*
X14075000Y2850000D02*
Y3070000D01*
X13925000Y2700000D02*
Y3069999D01*
X13775000Y2800000D02*
Y3070000D01*
D34*
X6190000Y3380000D02*
Y3810000D01*
X6685000D01*
X6685000Y3810000D01*
X6895000Y3600000D02*
X7350000D01*
X6685000Y3810000D02*
X6895000Y3600000D01*
X6456400Y3185000D02*
Y3195000D01*
X6421400Y3230000D02*
X6456400Y3195000D01*
X6190000Y3230000D02*
X6421400D01*
D35*
X8670000Y3425000D02*
X8685000D01*
X6913600Y2901400D02*
Y3185000D01*
Y2901400D02*
X6915000Y2900000D01*
X6913600Y3185000D02*
X7315000D01*
X6452700Y2823500D02*
X6453200Y2824000D01*
Y3181800D01*
X6450000Y2823500D02*
X6452700D01*
X6450000Y2140000D02*
Y2496500D01*
X9940000Y200000D02*
X10220000D01*
X10480000D01*
X10606345Y326345D02*
Y451344D01*
X10480000Y200000D02*
X10606345Y326345D01*
Y451344D02*
X10625000Y470000D01*
X9700000Y200000D02*
X9940000D01*
X9420000D02*
X9700000D01*
X9100000D02*
X9420000D01*
X8820000D02*
X9100000D01*
X8580000D02*
X8820000D01*
X8300000D02*
X8580000D01*
X6450000Y2140000D02*
X6950000Y1640000D01*
Y1199000D02*
Y1640000D01*
D36*
X9827501Y921473D02*
Y923236D01*
X9807770Y479730D02*
Y533993D01*
X9767230Y479730D02*
Y533994D01*
X9769570Y536334D02*
Y713298D01*
X9769571Y713299D02*
Y899403D01*
X9805430Y536334D02*
Y698444D01*
X9807770Y479730D02*
X9820000Y467500D01*
X9805430Y698445D02*
Y899403D01*
X9755000Y467500D02*
X9767230Y479730D01*
Y533994D02*
X9769570Y536334D01*
Y713298D02*
X9769571Y713299D01*
X9805430Y698444D02*
X9805430Y698445D01*
X9747500Y921473D02*
X9769571Y899403D01*
X9805430Y536334D02*
X9807770Y533993D01*
X9747500Y921473D02*
Y923236D01*
X9805430Y899403D02*
X9827501Y921473D01*
X8685430Y2286166D02*
X8707500Y2308236D01*
X8685430Y1391826D02*
X8685430Y1391827D01*
Y2286166D01*
X8685430Y536334D02*
Y1391826D01*
X8687770Y479730D02*
Y533993D01*
X8685430Y536334D02*
X8687770Y533993D01*
X8649570Y1406680D02*
Y2286166D01*
X8627500Y2308236D02*
Y2309999D01*
Y2308236D02*
X8649570Y2286166D01*
X8687770Y479730D02*
X8700000Y467500D01*
X8707500Y2308236D02*
Y2309999D01*
X8647230Y533994D02*
X8649570Y536334D01*
X8647230Y479730D02*
Y533994D01*
X8635000Y467500D02*
X8647230Y479730D01*
X8649570Y536334D02*
Y1406680D01*
X8649570Y1406680D01*
X13497929Y2607070D02*
X13505000Y2600000D01*
X13097929Y2607070D02*
X13497929D01*
X13022929Y2532070D02*
X13097929Y2607070D01*
X12603834Y2532070D02*
X13022929D01*
X12581764Y2510000D02*
X12603834Y2532070D01*
X13008076Y2567930D02*
X13083076Y2642930D01*
X12603834Y2567930D02*
X13008076D01*
X12580000Y2510000D02*
X12581764D01*
Y2590000D02*
X12603834Y2567930D01*
X13497929Y2642930D02*
X13505000Y2650000D01*
X13083076Y2642930D02*
X13497929D01*
X12580000Y2590000D02*
X12581764D01*
X12920000Y2850000D02*
X13504999D01*
X13505000Y2850000D01*
X12720000Y2800000D02*
X12870000D01*
X12920000Y2850000D01*
X13320000Y2450000D02*
X13505000D01*
X13210001Y2340000D02*
X13320000Y2450000D01*
X13497929Y2357070D02*
X13505000Y2350000D01*
X13421623Y2342003D02*
X13436690Y2357070D01*
X13497929D01*
X13421623Y2202179D02*
Y2342003D01*
X13391513Y2172070D02*
X13421623Y2202179D01*
X13343834Y2172070D02*
X13391513D01*
X13376660Y2207930D02*
X13385764Y2217033D01*
Y2356857D01*
X13421835Y2392930D02*
X13497929D01*
X13385764Y2356857D02*
X13421835Y2392930D01*
X13321764Y2230000D02*
X13343834Y2207930D01*
X13376660D01*
X13497929Y2392930D02*
X13505000Y2400000D01*
X13320000Y2150000D02*
X13321764D01*
X13320000Y2230000D02*
X13321764D01*
Y2150000D02*
X13343834Y2172070D01*
X7317930Y1281070D02*
X7400000Y1199000D01*
X7317930Y1281070D02*
Y1626166D01*
X7340000Y1648236D01*
Y1650000D01*
X7200000Y1199000D02*
X7282070Y1281070D01*
Y1626166D01*
X7260000Y1648236D02*
X7282070Y1626166D01*
X7260000Y1648236D02*
Y1650000D01*
D37*
X9130000Y350000D02*
X9350000Y570000D01*
X9635000D01*
X9690000Y515000D01*
Y467500D02*
Y515000D01*
X7579000Y570000D02*
X8515000D01*
X6950000Y1199000D02*
X7579000Y570000D01*
X8570000Y467500D02*
Y515000D01*
X8515000Y570000D02*
X8570000Y515000D01*
X6950000Y860000D02*
Y1199000D01*
Y860000D02*
X7460000Y350000D01*
X9130000Y350000D01*
D38*
X8492500Y445000D02*
D03*
X8907500D02*
D03*
X11450000Y380000D02*
D03*
X15850000D02*
D03*
X13650000D02*
D03*
X9612500Y445000D02*
D03*
X10027500D02*
D03*
D39*
X7400000Y1199000D02*
D03*
X7200000D02*
D03*
X7650000D02*
D03*
D40*
X6950000D02*
D03*
D41*
X6643000Y928000D02*
D03*
X7957000D02*
D03*
D42*
X3925000Y351500D02*
D03*
X2475000D02*
D03*
X6025000D02*
D03*
X4575000D02*
D03*
X1825000D02*
D03*
X375000D02*
D03*
D43*
X3925000Y947500D02*
D03*
X2475000D02*
D03*
X6025000D02*
D03*
X4575000D02*
D03*
X1825000D02*
D03*
X375000D02*
D03*
D44*
X12275000Y1148000D02*
D03*
X10625000D02*
D03*
X15025000D02*
D03*
X16674998D02*
D03*
X12825000D02*
D03*
X14474998D02*
D03*
D45*
X12275000Y470000D02*
D03*
X10625000D02*
D03*
X15025000D02*
D03*
X16674998D02*
D03*
X12825000D02*
D03*
X14474998D02*
D03*
D46*
X420000Y3130000D02*
D03*
X500000Y3130000D02*
D03*
X257150Y3127149D02*
D03*
X340000Y3130000D02*
D03*
X5130000Y2620000D02*
D03*
X2970000Y1380000D02*
D03*
X2972851Y1297150D02*
D03*
X2970000Y1540000D02*
D03*
X2970000Y1460000D02*
D03*
X5330000Y2950000D02*
D03*
X5132851Y2537150D02*
D03*
X5130000Y2780000D02*
D03*
X5130000Y2700000D02*
D03*
X5330000Y2870000D02*
D03*
X5332851Y2787150D02*
D03*
X5330001Y3030000D02*
D03*
X4870000Y1330000D02*
D03*
X4950000Y1329999D02*
D03*
X4707150Y1327149D02*
D03*
X4790000Y1330000D02*
D03*
X4470000Y1710000D02*
D03*
X600000Y1550000D02*
D03*
X517150Y1547149D02*
D03*
X760000Y1549999D02*
D03*
X680000Y1550000D02*
D03*
X4850000Y3250000D02*
D03*
X4210000Y2960000D02*
D03*
X4870000Y4080000D02*
D03*
Y4210000D02*
D03*
X3339999Y2930000D02*
D03*
X3340000Y3010000D02*
D03*
X3820000Y2580000D02*
D03*
X2660000Y1510000D02*
D03*
X4330000Y1710000D02*
D03*
X4950000Y3250000D02*
D03*
X3940000Y3260000D02*
D03*
X3870000Y3160000D02*
D03*
X11070000Y4080000D02*
D03*
X12630000Y1460000D02*
D03*
X12430000Y1830000D02*
D03*
X13450000Y1909999D02*
D03*
X13370000D02*
D03*
X13289999Y1910000D02*
D03*
X13530000D02*
D03*
X14940001Y1840000D02*
D03*
Y2080000D02*
D03*
X14939999Y2000000D02*
D03*
Y1920000D02*
D03*
X9520000Y4070000D02*
D03*
X13039999Y3230000D02*
D03*
Y3150000D02*
D03*
X14550000Y3750000D02*
D03*
X14250000D02*
D03*
X10890000Y3310000D02*
D03*
X10890000Y3230000D02*
D03*
Y3150000D02*
D03*
X10890000Y3070000D02*
D03*
X13039999Y3310000D02*
D03*
Y3070000D02*
D03*
X13270000Y3080000D02*
D03*
X4630000Y2960000D02*
D03*
X9950000Y675000D02*
D03*
X8827500Y650000D02*
D03*
X13270000Y2920000D02*
D03*
Y3000000D02*
D03*
X15350000Y1640000D02*
D03*
X11150000Y1750000D02*
D03*
X13239999Y1740000D02*
D03*
X13560001D02*
D03*
X10810000Y1850000D02*
D03*
X9747500Y923236D02*
D03*
X9827501D02*
D03*
X9907500Y923237D02*
D03*
X9667500D02*
D03*
X8547500Y2310000D02*
D03*
X8787500D02*
D03*
X8707500Y2309999D02*
D03*
X8627500D02*
D03*
X12580000Y2590000D02*
D03*
Y2510000D02*
D03*
X13320000Y2150000D02*
D03*
Y2230000D02*
D03*
X13320001Y2310000D02*
D03*
Y2070000D02*
D03*
X12720000Y2800000D02*
D03*
X12720000Y2880000D02*
D03*
X13210001Y2325000D02*
D03*
X13210001Y2245000D02*
D03*
X12580000Y2430000D02*
D03*
Y2670000D02*
D03*
X14455000Y3100000D02*
D03*
Y3000000D02*
D03*
X14055000Y2674999D02*
D03*
X13899998Y2520000D02*
D03*
X13900000Y2830000D02*
D03*
X13745000Y2675000D02*
D03*
X13359999Y2710000D02*
D03*
X13360001Y2790000D02*
D03*
X7180000Y1649999D02*
D03*
X7420000D02*
D03*
X7260000Y1650000D02*
D03*
X7340000D02*
D03*
X970000Y2090000D02*
D03*
X2490000Y2469999D02*
D03*
X2250000D02*
D03*
X2010000Y2090000D02*
D03*
X1770000D02*
D03*
X1530000Y2469999D02*
D03*
X1290000D02*
D03*
X1050000Y2090000D02*
D03*
X810000D02*
D03*
X3039999Y3960000D02*
D03*
Y4200000D02*
D03*
X2660000Y3720000D02*
D03*
Y3960000D02*
D03*
X2280000Y3480000D02*
D03*
Y3720000D02*
D03*
X1900000Y3480000D02*
D03*
Y3240000D02*
D03*
X2410000Y2470000D02*
D03*
X2330000D02*
D03*
X1930000Y2090000D02*
D03*
X1850000D02*
D03*
X1370000Y2470000D02*
D03*
X1450000D02*
D03*
X1900001Y3400000D02*
D03*
X2280000Y3640000D02*
D03*
Y3560000D02*
D03*
X1900001Y3320000D02*
D03*
X2660000Y3880000D02*
D03*
Y3800000D02*
D03*
X3040000Y4040000D02*
D03*
Y4120000D02*
D03*
X890000Y2090000D02*
D03*
D47*
X6190000Y3810000D02*
D03*
X6915000Y2900000D02*
D03*
%TF.MD5,14895a8f21d7611196885889d7b21f0b*%
M02*
