%TF.GenerationSoftware,Altium Limited,Altium Designer,24.10.1 (45)*%
G04 Layer_Color=8421504*
%FSLAX45Y45*%
%MOMM*%
%TF.SameCoordinates,079BFE04-B767-4AA5-AD7D-3EA92BFB1467*%
%TF.FilePolarity,Positive*%
%TF.FileFunction,Paste,Top*%
%TF.Part,Single*%
G01*
G75*
%TA.AperFunction,SMDPad,CuDef*%
%ADD11R,1.60000X0.90000*%
%ADD12R,0.50000X0.60000*%
%ADD13R,0.80000X0.80000*%
%ADD14R,0.50000X0.50000*%
%ADD15R,1.60000X2.60000*%
%ADD16R,1.50000X2.80000*%
%ADD17R,6.30000X6.10000*%
%ADD18R,1.22000X0.91000*%
%ADD19R,0.30000X0.90000*%
%ADD20R,0.90000X0.30000*%
%ADD21R,5.30000X4.60000*%
%ADD22R,0.30000X0.85000*%
%ADD23R,0.85000X0.30000*%
%ADD24R,7.65000X2.15000*%
%ADD25R,1.90000X1.90000*%
%ADD26R,1.80000X1.90000*%
%ADD27R,0.40000X1.35000*%
%ADD28R,1.50000X1.20000*%
%ADD29R,0.30000X2.60000*%
%ADD30R,0.28000X2.40000*%
%ADD31R,0.50000X0.50000*%
%ADD32R,0.60000X0.50000*%
D11*
X10910000Y3955000D02*
D03*
Y3665000D02*
D03*
D12*
X14550000Y3535000D02*
D03*
X14450000D02*
D03*
X4580000Y1370000D02*
D03*
X4480000D02*
D03*
X560000Y1390000D02*
D03*
X660000D02*
D03*
X860000D02*
D03*
X760000D02*
D03*
X2650000Y1380000D02*
D03*
X2550000D02*
D03*
X15300000Y1750000D02*
D03*
X15400000D02*
D03*
X10927499Y1950000D02*
D03*
X11027499D02*
D03*
X10927499Y1850000D02*
D03*
X11027499D02*
D03*
X13350000Y1740000D02*
D03*
X13450000D02*
D03*
X11027499Y1750000D02*
D03*
X10927499D02*
D03*
X14350000Y3535000D02*
D03*
X14250000D02*
D03*
D13*
X6190000Y3230000D02*
D03*
Y3380000D02*
D03*
D14*
X14555009Y3099995D02*
D03*
Y2999995D02*
D03*
X13250011Y2699995D02*
D03*
Y2799995D02*
D03*
X12959990Y2100005D02*
D03*
Y2000005D02*
D03*
X13059990Y2100005D02*
D03*
Y2000005D02*
D03*
X12350000Y2100000D02*
D03*
Y2000000D02*
D03*
X12250000Y2100000D02*
D03*
Y2000000D02*
D03*
X12025000Y2500000D02*
D03*
Y2400000D02*
D03*
X11925000Y2500000D02*
D03*
Y2400000D02*
D03*
X11750000Y2100000D02*
D03*
Y2000000D02*
D03*
X11650000Y2100000D02*
D03*
Y2000000D02*
D03*
X11425000Y2500000D02*
D03*
Y2400000D02*
D03*
X11325020Y2499990D02*
D03*
Y2399990D02*
D03*
D15*
X7350000Y3600000D02*
D03*
Y3240000D02*
D03*
D16*
X6456400Y3185000D02*
D03*
X6913600D02*
D03*
D17*
X6685000Y3810000D02*
D03*
D18*
X6450000Y2823500D02*
D03*
Y2496500D02*
D03*
D19*
X14224998Y3070000D02*
D03*
X14175000D02*
D03*
X14125000D02*
D03*
X14075000D02*
D03*
X14025000D02*
D03*
X13975000D02*
D03*
X13925000Y3069999D02*
D03*
X13875000D02*
D03*
X13825000Y3070000D02*
D03*
X13775000D02*
D03*
X13725000D02*
D03*
X13675000D02*
D03*
X13625000D02*
D03*
X13575000D02*
D03*
Y2280000D02*
D03*
X13625000D02*
D03*
X13675000D02*
D03*
X13725000D02*
D03*
X13775000D02*
D03*
X13825000D02*
D03*
X13875000Y2280000D02*
D03*
X13925000D02*
D03*
X13975000Y2280000D02*
D03*
X14025000D02*
D03*
X14075000D02*
D03*
X14125000D02*
D03*
X14175000D02*
D03*
X14224998D02*
D03*
D20*
X13505000Y3000000D02*
D03*
Y2950000D02*
D03*
Y2900000D02*
D03*
Y2850000D02*
D03*
Y2800000D02*
D03*
Y2750000D02*
D03*
X13505000Y2700000D02*
D03*
Y2650000D02*
D03*
X13505000Y2600000D02*
D03*
Y2550000D02*
D03*
Y2500000D02*
D03*
Y2450000D02*
D03*
Y2400000D02*
D03*
Y2350000D02*
D03*
X14295000D02*
D03*
Y2400000D02*
D03*
Y2450000D02*
D03*
Y2500000D02*
D03*
Y2550000D02*
D03*
Y2600000D02*
D03*
X14295000Y2650000D02*
D03*
Y2700000D02*
D03*
X14295000Y2750000D02*
D03*
Y2800000D02*
D03*
Y2850000D02*
D03*
Y2900000D02*
D03*
Y2950000D02*
D03*
Y3000000D02*
D03*
D21*
X13900000Y2675000D02*
D03*
D22*
X4820000Y3140000D02*
D03*
X4770000D02*
D03*
X4720000D02*
D03*
X4670000D02*
D03*
X4620000D02*
D03*
X4570000D02*
D03*
X4520000D02*
D03*
X4470000D02*
D03*
X4420000D02*
D03*
X4370000D02*
D03*
X4320000D02*
D03*
X4270000D02*
D03*
X4220000D02*
D03*
X4170000D02*
D03*
X4120000D02*
D03*
X4070000D02*
D03*
X4020000D02*
D03*
Y2780000D02*
D03*
X4070000D02*
D03*
X4120000D02*
D03*
X4170000D02*
D03*
X4220000D02*
D03*
X4270000D02*
D03*
X4320000D02*
D03*
X4370000D02*
D03*
X4420000D02*
D03*
X4470000D02*
D03*
X4520000D02*
D03*
X4570000D02*
D03*
X4620000D02*
D03*
X4670000D02*
D03*
X4720000D02*
D03*
X4770000D02*
D03*
X4820000D02*
D03*
D23*
X3975000Y3035000D02*
D03*
Y2985000D02*
D03*
Y2935000D02*
D03*
Y2885000D02*
D03*
X4865000D02*
D03*
Y2935000D02*
D03*
Y2985000D02*
D03*
Y3035000D02*
D03*
D24*
X4420000Y2960000D02*
D03*
D25*
X8580000Y200000D02*
D03*
X8820000D02*
D03*
X9700000D02*
D03*
X9940000D02*
D03*
D26*
X8300000D02*
D03*
X9100000D02*
D03*
X9420000D02*
D03*
X10220000D02*
D03*
D27*
X8570000Y467500D02*
D03*
X8830000D02*
D03*
X8635000D02*
D03*
X8700000D02*
D03*
X8765000D02*
D03*
X9690000D02*
D03*
X9950000D02*
D03*
X9755000D02*
D03*
X9820000D02*
D03*
X9885000D02*
D03*
D28*
X9710000Y3425000D02*
D03*
Y3675000D02*
D03*
Y3925000D02*
D03*
X10360000Y3425000D02*
D03*
Y3675000D02*
D03*
Y3925000D02*
D03*
X8685000Y3425000D02*
D03*
Y3675000D02*
D03*
Y3925000D02*
D03*
X9335000Y3425000D02*
D03*
Y3675000D02*
D03*
Y3925000D02*
D03*
D29*
X2750000Y1023500D02*
D03*
X2800000D02*
D03*
X2850000D02*
D03*
X2900000D02*
D03*
X2950000D02*
D03*
X3000000D02*
D03*
X3050000D02*
D03*
X3100000D02*
D03*
X3150000D02*
D03*
X3200000D02*
D03*
X3250000D02*
D03*
X3300000D02*
D03*
X3350000D02*
D03*
X3400000D02*
D03*
X3450000D02*
D03*
X3500000D02*
D03*
X3550000D02*
D03*
X3600000D02*
D03*
X3650000D02*
D03*
X4850000D02*
D03*
X4900000D02*
D03*
X4950000D02*
D03*
X5000000D02*
D03*
X5050000D02*
D03*
X5100000D02*
D03*
X5150000D02*
D03*
X5200000D02*
D03*
X5250000D02*
D03*
X5300000D02*
D03*
X5350000D02*
D03*
X5400000D02*
D03*
X5450000D02*
D03*
X5500000D02*
D03*
X5550000D02*
D03*
X5600000D02*
D03*
X5650000D02*
D03*
X5700000D02*
D03*
X5750000D02*
D03*
X650000D02*
D03*
X700000D02*
D03*
X750000D02*
D03*
X800000D02*
D03*
X850000D02*
D03*
X900000D02*
D03*
X950000D02*
D03*
X1000000D02*
D03*
X1050000D02*
D03*
X1100000D02*
D03*
X1150000D02*
D03*
X1200000D02*
D03*
X1250000D02*
D03*
X1300000D02*
D03*
X1350000D02*
D03*
X1400000D02*
D03*
X1450000D02*
D03*
X1500000D02*
D03*
X1550000D02*
D03*
D30*
X12000000Y1408000D02*
D03*
X11950000D02*
D03*
X11900000D02*
D03*
X11850000D02*
D03*
X11800000D02*
D03*
X11750000D02*
D03*
X11700000D02*
D03*
X11650000D02*
D03*
X11600000D02*
D03*
X11550000D02*
D03*
X11500000D02*
D03*
X11450000D02*
D03*
X11400000D02*
D03*
X11350000D02*
D03*
X11300000D02*
D03*
X11250000D02*
D03*
X11200000D02*
D03*
X11150000D02*
D03*
X11100000D02*
D03*
X11050000D02*
D03*
X15450000D02*
D03*
X15499998D02*
D03*
X15550000D02*
D03*
X15600000D02*
D03*
X15649998D02*
D03*
X15700000D02*
D03*
X15749998D02*
D03*
X15800000D02*
D03*
X15850000D02*
D03*
X15899998D02*
D03*
X15950000D02*
D03*
X15999998D02*
D03*
X16050000D02*
D03*
X16100000D02*
D03*
X16149998D02*
D03*
X16200000D02*
D03*
X16250000D02*
D03*
X16300000D02*
D03*
X16350000D02*
D03*
X16399998D02*
D03*
X13250000D02*
D03*
X13300000D02*
D03*
X13350000D02*
D03*
X13400000D02*
D03*
X13450000D02*
D03*
X13500000D02*
D03*
X13550000D02*
D03*
X13600000D02*
D03*
X13650000D02*
D03*
X13700000D02*
D03*
X13750000D02*
D03*
X13800000D02*
D03*
X13850000D02*
D03*
X13900000D02*
D03*
X13950000D02*
D03*
X14000000D02*
D03*
X14050000D02*
D03*
X14100000D02*
D03*
X14150000D02*
D03*
X14200000D02*
D03*
D31*
X4950005Y3340010D02*
D03*
X4850005D02*
D03*
X15414995Y2099990D02*
D03*
X15314995D02*
D03*
X15414999Y2000000D02*
D03*
X15314999D02*
D03*
D32*
X11170000Y3770000D02*
D03*
Y3670000D02*
D03*
%TF.MD5,b6ac726ebfbb491c3de52ca5adb01e21*%
M02*
