M48
;Layer_Color=9474304
;FILE_FORMAT=4:4
METRIC,LZ
;TYPE=PLATED
T01F00S00C0.3000
T02F00S00C0.5000
T03F00S00C0.9200
T04F00S00C1.2500
T05F00S00C1.7100
T06F00S00C1.9920
T07F00S00C2.3000
T08F00S00C2.9095
;TYPE=NON_PLATED
T09F00S00C0.7000
T10F00S00C1.4000
%
T01
X00297285Y00129715
X00297Y00138
X00470715Y00132715
X00479Y00133
X00487
X00495Y00133
X0088275Y00065
X0096675Y00092324
X0097475Y00092324
X0098275
X0099075Y00092324
X00995Y000675
X01337Y00191
X01345
X01353Y00191
X01356Y00174
X0139Y00252
X014055Y002675
X0139Y00283
X013745Y002675
X01336Y00271
X01336Y00279
X014455Y003
Y0031
X01455Y00375
X01425
X01494Y00208
X01494Y002
Y00192
X01494Y00184
X01535Y00164
X01324Y00174
X01329Y00191
X01332Y00207
X01332Y00215
Y00223
X01332Y00231
X01321Y002325
X01321Y002245
X01327Y00292
Y003
X01327Y00308
X01304Y00307
X01304Y00315
Y00323
X01304Y00331
X01272Y00288
X01272Y0028
X01258Y00267
X01258Y00259
Y00251
X01258Y00243
X01243Y00183
X01263Y00146
X01115Y00175
X01081Y00185
X01089Y00307
X01089Y00315
Y00323
X01089Y00331
X01107Y00408
X00952Y00407
X0087875Y00231
X0087075Y00231
X0086275
X0085475Y00231
X00742Y00165
X00734Y00165
X00726
X00718Y00165
X00447Y00171
X00433
X00421Y00296
X00463
X00485Y00325
X00495
X00533Y00303
X00533Y00295
Y00287
X00533285Y00278715
X00513Y00278
X00513Y0027
Y00262
X00513285Y00253715
X00382Y00258
X00387Y00316
X00394Y00326
X00334Y00301
X00334Y00293
X00249Y00247
X00241Y00247
X00233
X00225Y00247
X00201Y00209
X00193Y00209
X00185
X00177Y00209
X00153Y00247
X00145Y00247
X0019Y00324
X0019Y00332
Y0034
X0019Y00348
X00228
X00228Y00356
Y00364
X00228Y00372
X00266
X00266Y0038
Y00388
X00266Y00396
X00304
X00304Y00404
Y00412
X00304Y0042
X00487Y00421
Y00408
X00297Y00154
X00297Y00146
X00266Y00151
X00076Y00155
X00068Y00155
X0006
X00051715Y00154715
X00081Y00209
X00089Y00209
X00097
X00105Y00209
X00129Y00247
X00137Y00247
X0005Y00313
X00042Y00313
X00034
X00025715Y00312715
T02
X006915Y0029
X00619Y00381
T03
X00695Y001199
X0072
X0074
X00765
T04
X010625Y00047
X012275
X012825
X014475
X015025
X016675
T05
X010625Y001148
X012275
X012825
X014475
X015025
X016675
T06
X000375Y0003515
X001825
X002475
X003925
X004575
X006025
T07
X006643Y000928
X007957
T08
X000375Y0009475
X001825
X002475
X003925
X004575
X006025
T09
X0084925Y000445
X0089075
X0096125
X0100275
T10
X01145Y00038
X01365
X01585
M30
