%TF.GenerationSoftware,Altium Limited,Altium Designer,24.10.1 (45)*%
G04 Layer_Physical_Order=4*
G04 Layer_Color=16711680*
%FSLAX45Y45*%
%MOMM*%
%TF.SameCoordinates,079BFE04-B767-4AA5-AD7D-3EA92BFB1467*%
%TF.FilePolarity,Positive*%
%TF.FileFunction,Copper,L4,Bot,Signal*%
%TF.Part,Single*%
G01*
G75*
%TA.AperFunction,Conductor*%
%ADD10C,0.12170*%
%ADD33C,0.25400*%
%ADD36C,0.15540*%
%TA.AperFunction,ComponentPad*%
%ADD38C,0.70000*%
%ADD39C,1.42000*%
G04:AMPARAMS|DCode=40|XSize=1.42mm|YSize=1.42mm|CornerRadius=0.355mm|HoleSize=0mm|Usage=FLASHONLY|Rotation=0.000|XOffset=0mm|YOffset=0mm|HoleType=Round|Shape=RoundedRectangle|*
%AMROUNDEDRECTD40*
21,1,1.42000,0.71000,0,0,0.0*
21,1,0.71000,1.42000,0,0,0.0*
1,1,0.71000,0.35500,-0.35500*
1,1,0.71000,-0.35500,-0.35500*
1,1,0.71000,-0.35500,0.35500*
1,1,0.71000,0.35500,0.35500*
%
%ADD40ROUNDEDRECTD40*%
%ADD41C,3.45000*%
%ADD42C,2.88000*%
%ADD43C,4.27500*%
%ADD44C,2.56500*%
%ADD45C,1.87500*%
%TA.AperFunction,ViaPad*%
%ADD46C,0.45000*%
%ADD47C,1.00000*%
D10*
X1783936Y3343755D02*
G03*
X1765151Y3324970I0J-18785D01*
G01*
X1746366Y3280016D02*
G03*
X1765151Y3298801I0J18785D01*
G01*
X1727581D02*
G03*
X1746366Y3280016I18785J0D01*
G01*
X1727581Y3324970D02*
G03*
X1708796Y3343755I-18785J0D01*
G01*
X1708796D02*
G03*
X1690011Y3324970I0J-18785D01*
G01*
X1671226Y3267555D02*
G03*
X1690011Y3286340I0J18785D01*
G01*
X1652441D02*
G03*
X1671226Y3267555I18785J0D01*
G01*
X1652441Y3324970D02*
G03*
X1633656Y3343755I-18785J0D01*
G01*
X11010000Y3143755D02*
G03*
X11050000Y3143755I20000J0D01*
G01*
X11010000Y3150000D02*
G03*
X10986245Y3173755I-23755J0D01*
G01*
X11080000D02*
G03*
X11050000Y3143755I0J-30000D01*
G01*
X14761205Y1976245D02*
G03*
X14779990Y1995030I0J18785D01*
G01*
X14798775Y2018373D02*
G03*
X14779990Y1999589I0J-18785D01*
G01*
X14817558D02*
G03*
X14798775Y2018373I-18785J0D01*
G01*
X14817558Y1995030D02*
G03*
X14836343Y1976245I18785J0D01*
G01*
X1783936Y3343755D02*
X1830000D01*
X1765151Y3298801D02*
Y3324970D01*
X1746366Y3280016D02*
X1746366D01*
X1727581Y3298801D02*
Y3324970D01*
X1708796Y3343755D02*
X1708796D01*
X1690011Y3286340D02*
Y3324970D01*
X1671226Y3267555D02*
X1671226D01*
X1652441Y3286340D02*
Y3324970D01*
X1590000Y3343755D02*
X1633656D01*
X1830000D02*
X1876245D01*
X1093755D02*
X1590000D01*
X10913755Y3173755D02*
X10986245D01*
X11010000Y3143755D02*
Y3150000D01*
X11080000Y3173755D02*
X13016245D01*
X10890000Y3150000D02*
X10913755Y3173755D01*
Y3206245D02*
X13016245D01*
X10890000Y3230000D02*
X10913755Y3206245D01*
X13016245Y3173755D02*
X13039999Y3150000D01*
X13016245Y3206245D02*
X13039999Y3230000D01*
X14620000Y1976245D02*
X14761205D01*
X14779990Y1995030D02*
Y1999589D01*
X14798775Y2018373D02*
X14798775D01*
X14817558Y1995030D02*
Y1999589D01*
X14836343Y1976245D02*
X14880000D01*
X14070297D02*
X14620000D01*
X14880000D02*
X14916245D01*
X666542Y1817510D02*
X823458D01*
X547510Y1936542D02*
X666542Y1817510D01*
X580000Y1950000D02*
X680000Y1850000D01*
X810000D01*
X547510Y1936542D02*
Y2843458D01*
X580000Y1950000D02*
Y2830001D01*
X823458Y1817510D02*
X946245Y1940297D01*
X13426245Y1703755D02*
Y1886244D01*
Y1703755D02*
X13500000Y1630000D01*
X13370000Y1909999D02*
X13393755Y1886244D01*
Y1690297D02*
X13486542Y1597510D01*
X13426245Y1886244D02*
X13450000Y1909999D01*
X13393755Y1690297D02*
Y1886244D01*
X13500000Y1630000D02*
X13724052D01*
X13486542Y1597510D02*
X13737511D01*
X14916245Y1976245D02*
X14939999Y2000000D01*
X13737511Y1597510D02*
X14083755Y1943755D01*
X14916245D01*
X13724052Y1630000D02*
X14070297Y1976245D01*
X14916245Y1943755D02*
X14939999Y1920000D01*
X1080297Y3376245D02*
X1876245D01*
X547510Y2843458D02*
X1080297Y3376245D01*
X1876245D02*
X1900001Y3400000D01*
X580000Y2830001D02*
X1093755Y3343755D01*
X1876245D02*
X1900001Y3320000D01*
X1867511Y2925000D02*
X2092510Y3150000D01*
X1329053Y2925000D02*
X1867511D01*
X1067510Y2663458D02*
X1329053Y2925000D01*
X1100000Y2650000D02*
X1342510Y2892510D01*
X1880968D02*
X2125000Y3136542D01*
X1342510Y2892510D02*
X1880968D01*
X2125000Y3481346D02*
X2227409Y3583755D01*
X2092510Y3150000D02*
Y3494804D01*
X2213951Y3616245D01*
X2125000Y3136542D02*
Y3481346D01*
X1100000Y2345948D02*
Y2650000D01*
X1175948Y2270000D02*
X1320000D01*
X1100000Y2345948D02*
X1175948Y2270000D01*
X1162490Y2237510D02*
X1333458D01*
X1067510Y2332490D02*
X1162490Y2237510D01*
X1067510Y2332490D02*
Y2663458D01*
X1333458Y2237510D02*
X1426245Y2330297D01*
X2213951Y3616245D02*
X2256245D01*
X2280000Y3640000D01*
X2227409Y3583755D02*
X2256245D01*
X2280000Y3560000D01*
X1567510Y1911542D02*
Y2167510D01*
X2492510Y3092510D02*
Y3754805D01*
X1567510Y2167510D02*
X2492510Y3092510D01*
X1600000Y2154053D02*
X2525000Y3079053D01*
X1600000Y1925000D02*
Y2154053D01*
X2525000Y3079053D02*
Y3741347D01*
X2636245Y3856245D02*
X2660000Y3880000D01*
X2525000Y3741347D02*
X2607409Y3823755D01*
X2636245D01*
X2660000Y3800000D01*
X2492510Y3754805D02*
X2593951Y3856245D01*
X2636245D01*
X3016245Y4063755D02*
X3040000Y4040000D01*
X2973951Y4096245D02*
X3016245D01*
X2852752Y3975047D02*
X2973951Y4096245D01*
X3016245D02*
X3040000Y4120000D01*
X2885242Y2398811D02*
X2890000Y2394053D01*
X2885242Y2398811D02*
Y3961589D01*
X2852752Y2402753D02*
Y3975047D01*
X2885242Y3961589D02*
X2987408Y4063755D01*
X2670000Y2220000D02*
X2852752Y2402753D01*
X2987408Y4063755D02*
X3016245D01*
X1600000Y1925000D02*
X1665000Y1860000D01*
X1567510Y1911542D02*
X1651542Y1827510D01*
X1807510D01*
X1665000Y1860000D02*
X1794053D01*
X2386245Y2363755D02*
Y2446245D01*
Y2363755D02*
X2530000Y2220000D01*
X2330000Y2470000D02*
X2353755Y2446245D01*
Y2350298D02*
Y2446245D01*
Y2350298D02*
X2516542Y2187510D01*
X2683457D01*
X2386245Y2446245D02*
X2410000Y2470000D01*
X2530000Y2220000D02*
X2670000D01*
X2683457Y2187510D02*
X2890000Y2394053D01*
X1807510Y1827510D02*
X1906245Y1926245D01*
X1794053Y1860000D02*
X1873755Y1939702D01*
Y2066245D01*
X1906245Y1926245D02*
Y2066245D01*
X1850000Y2090000D02*
X1873755Y2066245D01*
X1906245D02*
X1930000Y2090000D01*
X1370000Y2470000D02*
X1393755Y2446245D01*
Y2343755D02*
Y2446245D01*
X1426245D02*
X1450000Y2470000D01*
X1426245Y2330297D02*
Y2446245D01*
X1320000Y2270000D02*
X1393755Y2343755D01*
X946245Y1940297D02*
Y2066245D01*
X913755Y1953755D02*
Y2066245D01*
X810000Y1850000D02*
X913755Y1953755D01*
X890000Y2090000D02*
X913755Y2066245D01*
X946245D02*
X970000Y2090000D01*
D33*
X440000Y2860000D02*
G03*
X490000Y2910000I0J50000D01*
G01*
X390000Y2860000D02*
G03*
X340000Y2810000I0J-50000D01*
G01*
X490000Y2910000D02*
G03*
X440000Y2960000I-50000J0D01*
G01*
X340000Y3010000D02*
G03*
X390000Y2960000I50000J0D01*
G01*
X160000Y1990000D02*
Y3180000D01*
X230000Y3250000D02*
X360000D01*
X160000Y3180000D02*
X230000Y3250000D01*
X360000D02*
X416250Y3193750D01*
Y3133750D02*
Y3193750D01*
X390000Y2860000D02*
X440000D01*
X390000Y2960000D02*
X440000D01*
X340000Y1960000D02*
Y2810000D01*
Y1960000D02*
X680000Y1620000D01*
X340000Y3010000D02*
Y3130000D01*
X416250Y3133750D02*
X420000Y3130000D01*
X160000Y1990000D02*
X600000Y1550000D01*
X10890000Y3750000D02*
X14250000D01*
X6915000Y2900000D02*
X10040000D01*
X10890000Y3750000D01*
X10040000Y2900000D02*
X11770000D01*
X5393451Y2716902D02*
Y2740000D01*
X5370551Y2694001D02*
X5393451Y2716902D01*
X5370551Y2668601D02*
Y2694001D01*
Y2668601D02*
X5393451Y2645701D01*
Y2620301D02*
Y2645701D01*
X5370551Y2597401D02*
X5393451Y2620301D01*
X5370551Y2572001D02*
Y2597401D01*
Y2572001D02*
X5393451Y2549101D01*
Y2523701D02*
Y2549101D01*
X5370551Y2500801D02*
X5393451Y2523701D01*
X5370551Y2475401D02*
Y2500801D01*
Y2475401D02*
X5393451Y2452501D01*
Y2427101D02*
Y2452501D01*
X5370551Y2404201D02*
X5393451Y2427101D01*
X5370551Y2378801D02*
Y2404201D01*
Y2378801D02*
X5393451Y2355901D01*
Y2330501D02*
Y2355901D01*
X5370551Y2307600D02*
X5393451Y2330501D01*
X5370551Y2282200D02*
Y2307600D01*
Y2282200D02*
X5393451Y2259300D01*
Y2233900D02*
Y2259300D01*
X5370551Y2211000D02*
X5393451Y2233900D01*
X5370551Y2185600D02*
Y2211000D01*
Y2185600D02*
X5393451Y2162700D01*
Y2150000D02*
Y2162700D01*
Y2740000D02*
Y2812251D01*
Y2003451D02*
Y2150000D01*
X5086248Y2576248D02*
X5100000Y2590000D01*
X5053863Y2576248D02*
X5086248D01*
X5035902Y2558288D02*
X5053863Y2576248D01*
X5035902Y2525902D02*
Y2558288D01*
X5016146Y2506146D02*
X5035902Y2525902D01*
X4983760Y2506146D02*
X5016146D01*
X4965800Y2488186D02*
X4983760Y2506146D01*
X4965800Y2455800D02*
Y2488186D01*
X4946044Y2436044D02*
X4965800Y2455800D01*
X4913658Y2436044D02*
X4946044D01*
X4895698Y2418084D02*
X4913658Y2436044D01*
X4895698Y2385698D02*
Y2418084D01*
X4875941Y2365942D02*
X4895698Y2385698D01*
X4843556Y2365942D02*
X4875941D01*
X4825596Y2347981D02*
X4843556Y2365942D01*
X4825596Y2315596D02*
Y2347981D01*
X4807635Y2297635D02*
X4825596Y2315596D01*
X4775250Y2297635D02*
X4807635D01*
X4757289Y2279675D02*
X4775250Y2297635D01*
X4757289Y2247289D02*
Y2279675D01*
X4739326Y2229326D02*
X4757289Y2247289D01*
X4706941Y2229326D02*
X4739326D01*
X4688980Y2211366D02*
X4706941Y2229326D01*
X4688980Y2178980D02*
Y2211366D01*
X4680000Y2170000D02*
X4688980Y2178980D01*
X5100000Y2590000D02*
X5130000Y2620000D01*
X4570000Y2060000D02*
X4680000Y2170000D01*
X5193451Y2133451D02*
Y2642250D01*
X4440000Y1380000D02*
X5193451Y2133451D01*
X5155101Y2680600D02*
X5193451Y2642250D01*
X5154704Y2680600D02*
X5155101D01*
X5130000Y2700000D02*
X5135304D01*
X5154704Y2680600D01*
X2970000Y1380000D02*
X4440000D01*
X4570000Y1650000D02*
Y2060000D01*
X4380000Y1460000D02*
X4570000Y1650000D01*
X2970000Y1460000D02*
X4380000D01*
X2660000Y1510000D02*
X2750000D01*
X4790000Y1400000D02*
X5393451Y2003451D01*
X5330000Y2870000D02*
X5335304D01*
X5357554Y2847750D01*
X5357952D01*
X5393451Y2812251D01*
X5410000Y2950000D02*
X5460000Y2900000D01*
X5330000Y2950000D02*
X5410000D01*
X5460000Y1940000D02*
Y2900000D01*
X4889400Y1354704D02*
Y1369400D01*
X5460000Y1940000D01*
X4870000Y1330000D02*
Y1335304D01*
X4889400Y1354704D01*
X4790000Y1330000D02*
Y1400000D01*
X4470000Y1710000D02*
Y2270000D01*
X3730000Y3010000D02*
X4470000Y2270000D01*
X3340000Y3010000D02*
X3730000D01*
X4330000Y1710000D02*
Y2260000D01*
X3339999Y2930000D02*
X3660000D01*
X4330000Y2260000D01*
X680000Y1550000D02*
Y1620000D01*
X4850000Y3250000D02*
X4950000Y3150000D01*
X4300000Y4210000D02*
X4870000D01*
X4280000Y4080000D02*
X4870000D01*
X3880000Y3680000D02*
X4280000Y4080000D01*
X3800000Y3710000D02*
X4300000Y4210000D01*
X2750000Y1510000D02*
X3820000Y2580000D01*
X4950000Y3150000D02*
X5500000D01*
X5750000Y2900000D01*
X6915000D01*
X3800000Y3230000D02*
Y3710000D01*
Y3230000D02*
X3870000Y3160000D01*
X3880000Y3320000D02*
Y3680000D01*
Y3320000D02*
X3940000Y3260000D01*
X11900000Y3030000D02*
X12850000D01*
X13089999Y2790000D01*
X11770000Y2900000D02*
X11900000Y3030000D01*
X12630000Y1460000D02*
X12960001D01*
X13239999Y1740000D01*
X11150000Y1750000D02*
X11230000Y1830000D01*
X12430000D01*
X13670000Y2950000D02*
X14405000D01*
X14455000Y3000000D01*
X13270000D02*
X13370000D01*
X13650000Y3280000D01*
X14730000D01*
X15089999Y2920000D01*
Y1770000D02*
X15220000Y1640000D01*
X15089999Y1770000D02*
Y2920000D01*
X15220000Y1640000D02*
X15350000D01*
X9270000Y1490000D02*
X9630000Y1850000D01*
X7080000Y1490000D02*
X9270000D01*
X9630000Y1850000D02*
X10810000D01*
X6915000Y1655000D02*
Y2900000D01*
Y1655000D02*
X7080000Y1490000D01*
X13510001Y2790000D02*
X13670000Y2950000D01*
X13360001Y2790000D02*
X13510001D01*
X13089999D02*
X13360001D01*
D36*
X12810725Y2270000D02*
G03*
X12790255Y2249530I0J-20470D01*
G01*
X12769785Y2071232D02*
G03*
X12790255Y2091701I0J20470D01*
G01*
X12749315D02*
G03*
X12769785Y2071232I20470J0D01*
G01*
X12749315Y2205685D02*
G03*
X12728845Y2226155I-20470J0D01*
G01*
X12728845D02*
G03*
X12708375Y2205685I0J-20470D01*
G01*
X12687905Y2071232D02*
G03*
X12708375Y2091701I0J20470D01*
G01*
X12667435D02*
G03*
X12687905Y2071232I20470J0D01*
G01*
X12667435Y2135797D02*
G03*
X12632491Y2150271I-20470J0D01*
G01*
X9825065Y1115066D02*
G03*
X9839540Y1080121I14474J-14474D01*
G01*
X9862333Y1059651D02*
G03*
X9841863Y1080121I-20470J0D01*
G01*
Y1039181D02*
G03*
X9862333Y1059651I0J20470D01*
G01*
X9825900Y1039181D02*
G03*
X9805430Y1018711I0J-20470D01*
G01*
X8701789Y2494288D02*
G03*
X8716263Y2459344I14474J-14474D01*
G01*
X8737919Y2438874D02*
G03*
X8717449Y2459344I-20470J0D01*
G01*
Y2418404D02*
G03*
X8737919Y2438874I0J20470D01*
G01*
X8705900Y2418404D02*
G03*
X8685430Y2397934I0J-20470D01*
G01*
X13155000Y2270000D02*
X13179170Y2294169D01*
X12810725Y2270000D02*
X13155000D01*
X12790255Y2091701D02*
Y2249530D01*
X12769785Y2071232D02*
X12769785D01*
X12749315Y2091701D02*
Y2205685D01*
X12728845Y2226155D02*
X12728845D01*
X12708375Y2091701D02*
Y2205685D01*
X12687905Y2071232D02*
X12687905D01*
X12667435Y2091701D02*
Y2135797D01*
X12608489Y2126269D02*
X12632491Y2150271D01*
X9970000Y1260000D02*
X10332500Y1622500D01*
X9825065Y1115066D02*
X9970000Y1260000D01*
X9839540Y1080121D02*
X9841863D01*
X9862333Y1059651D02*
Y1059651D01*
X9825900Y1039181D02*
X9841863D01*
X9805430Y970000D02*
Y1018711D01*
Y947070D02*
Y970000D01*
X8701789Y2494288D02*
X8855808Y2648307D01*
X8716263Y2459344D02*
X8717449D01*
X8737919Y2438874D02*
Y2438874D01*
X8705900Y2418404D02*
X8717449D01*
X8685430Y2349223D02*
Y2397934D01*
Y2333833D02*
Y2349223D01*
X8855808Y2648307D02*
X8857501Y2650000D01*
X8842647Y2685860D02*
X9744854D01*
X8857501Y2650000D02*
X9730000D01*
X8649570Y2333833D02*
Y2492784D01*
X8842647Y2685860D01*
X13179170Y2294169D02*
X13210001Y2325000D01*
X12537237Y2055016D02*
X12608489Y2126269D01*
X7666287Y2055016D02*
X12537237D01*
X12702090Y1658360D02*
X13251660Y2207930D01*
X10317646Y1658360D02*
X12702090D01*
X12716944Y1622500D02*
X13266515Y2172070D01*
X10332500Y1622500D02*
X12716944D01*
X9769571Y1110284D02*
X10317646Y1658360D01*
X13296165Y2172070D02*
X13318237Y2150000D01*
X13266515Y2172070D02*
X13296165D01*
X13318237Y2150000D02*
X13320000D01*
X13251660Y2207930D02*
X13296165D01*
X13318237Y2230000D01*
X13320000D01*
X9827501Y923236D02*
Y925000D01*
X9805430Y947070D02*
X9827501Y925000D01*
X9747500Y923236D02*
Y925000D01*
X9769571Y947070D01*
Y1110284D01*
X9744854Y2685860D02*
X9862784Y2567930D01*
X9847930Y2532070D02*
X12556166D01*
X9730000Y2650000D02*
X9847930Y2532070D01*
X9862784Y2567930D02*
X12556166D01*
X12578236Y2510000D02*
X12580000D01*
X12556166Y2532070D02*
X12578236Y2510000D01*
X12556166Y2567930D02*
X12578236Y2590000D01*
X12580000D01*
X8627500Y2311763D02*
X8649570Y2333833D01*
X8627500Y2309999D02*
Y2311763D01*
X8707500Y2309999D02*
Y2311763D01*
X8685430Y2333833D02*
X8707500Y2311763D01*
X12720000Y2288494D02*
Y2800000D01*
X12522383Y2090876D02*
X12720000Y2288494D01*
X7317930Y1706660D02*
X7666287Y2055016D01*
X7317930Y1673834D02*
Y1706660D01*
Y1673834D02*
X7340000Y1651764D01*
Y1650000D02*
Y1651764D01*
X7651433Y2090876D02*
X12522383D01*
X7282070Y1673834D02*
Y1721513D01*
X7651433Y2090876D01*
X7260000Y1650000D02*
Y1651764D01*
X7282070Y1673834D01*
D38*
X8492500Y445000D02*
D03*
X8907500D02*
D03*
X11450000Y380000D02*
D03*
X15850000D02*
D03*
X13650000D02*
D03*
X9612500Y445000D02*
D03*
X10027500D02*
D03*
D39*
X7400000Y1199000D02*
D03*
X7200000D02*
D03*
X7650000D02*
D03*
D40*
X6950000D02*
D03*
D41*
X6643000Y928000D02*
D03*
X7957000D02*
D03*
D42*
X3925000Y351500D02*
D03*
X2475000D02*
D03*
X6025000D02*
D03*
X4575000D02*
D03*
X1825000D02*
D03*
X375000D02*
D03*
D43*
X3925000Y947500D02*
D03*
X2475000D02*
D03*
X6025000D02*
D03*
X4575000D02*
D03*
X1825000D02*
D03*
X375000D02*
D03*
D44*
X12275000Y1148000D02*
D03*
X10625000D02*
D03*
X15025000D02*
D03*
X16674998D02*
D03*
X12825000D02*
D03*
X14474998D02*
D03*
D45*
X12275000Y470000D02*
D03*
X10625000D02*
D03*
X15025000D02*
D03*
X16674998D02*
D03*
X12825000D02*
D03*
X14474998D02*
D03*
D46*
X420000Y3130000D02*
D03*
X500000Y3130000D02*
D03*
X257150Y3127149D02*
D03*
X340000Y3130000D02*
D03*
X5130000Y2620000D02*
D03*
X2970000Y1380000D02*
D03*
X2972851Y1297150D02*
D03*
X2970000Y1540000D02*
D03*
X2970000Y1460000D02*
D03*
X5330000Y2950000D02*
D03*
X5132851Y2537150D02*
D03*
X5130000Y2780000D02*
D03*
X5130000Y2700000D02*
D03*
X5330000Y2870000D02*
D03*
X5332851Y2787150D02*
D03*
X5330001Y3030000D02*
D03*
X4870000Y1330000D02*
D03*
X4950000Y1329999D02*
D03*
X4707150Y1327149D02*
D03*
X4790000Y1330000D02*
D03*
X4470000Y1710000D02*
D03*
X600000Y1550000D02*
D03*
X517150Y1547149D02*
D03*
X760000Y1549999D02*
D03*
X680000Y1550000D02*
D03*
X4850000Y3250000D02*
D03*
X4210000Y2960000D02*
D03*
X4870000Y4080000D02*
D03*
Y4210000D02*
D03*
X3339999Y2930000D02*
D03*
X3340000Y3010000D02*
D03*
X3820000Y2580000D02*
D03*
X2660000Y1510000D02*
D03*
X4330000Y1710000D02*
D03*
X4950000Y3250000D02*
D03*
X3940000Y3260000D02*
D03*
X3870000Y3160000D02*
D03*
X11070000Y4080000D02*
D03*
X12630000Y1460000D02*
D03*
X12430000Y1830000D02*
D03*
X13450000Y1909999D02*
D03*
X13370000D02*
D03*
X13289999Y1910000D02*
D03*
X13530000D02*
D03*
X14940001Y1840000D02*
D03*
Y2080000D02*
D03*
X14939999Y2000000D02*
D03*
Y1920000D02*
D03*
X9520000Y4070000D02*
D03*
X13039999Y3230000D02*
D03*
Y3150000D02*
D03*
X14550000Y3750000D02*
D03*
X14250000D02*
D03*
X10890000Y3310000D02*
D03*
X10890000Y3230000D02*
D03*
Y3150000D02*
D03*
X10890000Y3070000D02*
D03*
X13039999Y3310000D02*
D03*
Y3070000D02*
D03*
X13270000Y3080000D02*
D03*
X4630000Y2960000D02*
D03*
X9950000Y675000D02*
D03*
X8827500Y650000D02*
D03*
X13270000Y2920000D02*
D03*
Y3000000D02*
D03*
X15350000Y1640000D02*
D03*
X11150000Y1750000D02*
D03*
X13239999Y1740000D02*
D03*
X13560001D02*
D03*
X10810000Y1850000D02*
D03*
X9747500Y923236D02*
D03*
X9827501D02*
D03*
X9907500Y923237D02*
D03*
X9667500D02*
D03*
X8547500Y2310000D02*
D03*
X8787500D02*
D03*
X8707500Y2309999D02*
D03*
X8627500D02*
D03*
X12580000Y2590000D02*
D03*
Y2510000D02*
D03*
X13320000Y2150000D02*
D03*
Y2230000D02*
D03*
X13320001Y2310000D02*
D03*
Y2070000D02*
D03*
X12720000Y2800000D02*
D03*
X12720000Y2880000D02*
D03*
X13210001Y2325000D02*
D03*
X13210001Y2245000D02*
D03*
X12580000Y2430000D02*
D03*
Y2670000D02*
D03*
X14455000Y3100000D02*
D03*
Y3000000D02*
D03*
X14055000Y2674999D02*
D03*
X13899998Y2520000D02*
D03*
X13900000Y2830000D02*
D03*
X13745000Y2675000D02*
D03*
X13359999Y2710000D02*
D03*
X13360001Y2790000D02*
D03*
X7180000Y1649999D02*
D03*
X7420000D02*
D03*
X7260000Y1650000D02*
D03*
X7340000D02*
D03*
X970000Y2090000D02*
D03*
X2490000Y2469999D02*
D03*
X2250000D02*
D03*
X2010000Y2090000D02*
D03*
X1770000D02*
D03*
X1530000Y2469999D02*
D03*
X1290000D02*
D03*
X1050000Y2090000D02*
D03*
X810000D02*
D03*
X3039999Y3960000D02*
D03*
Y4200000D02*
D03*
X2660000Y3720000D02*
D03*
Y3960000D02*
D03*
X2280000Y3480000D02*
D03*
Y3720000D02*
D03*
X1900000Y3480000D02*
D03*
Y3240000D02*
D03*
X2410000Y2470000D02*
D03*
X2330000D02*
D03*
X1930000Y2090000D02*
D03*
X1850000D02*
D03*
X1370000Y2470000D02*
D03*
X1450000D02*
D03*
X1900001Y3400000D02*
D03*
X2280000Y3640000D02*
D03*
Y3560000D02*
D03*
X1900001Y3320000D02*
D03*
X2660000Y3880000D02*
D03*
Y3800000D02*
D03*
X3040000Y4040000D02*
D03*
Y4120000D02*
D03*
X890000Y2090000D02*
D03*
D47*
X6190000Y3810000D02*
D03*
X6915000Y2900000D02*
D03*
%TF.MD5,c53ec053010cb3c8c8f6f7f4a6c80cf5*%
M02*
